/* XPM */
static char *out[] = {
/* columns rows colors chars-per-pixel */
"32 32 9 1 ",
"  c #25131A",
". c #36253B",
"X c #373737",
"o c #39334A",
"O c #463E57",
"+ c #895A45",
"@ c #BF704D",
"# c #90919E",
"$ c #ADC1CF",
/* pixels */
" ...oooooooooooooooooooooooo... ",
" ...oooooooooooooooooooooooo... ",
" ...oooooOOOoooooooooooooooo... ",
" ...oooooOOOOOoooooooooooooo... ",
" ...oooooOOOOOooooOOOooooooo... ",
" ...ooooo..OOOooooOOOOoooooo... ",
" ...ooooooo...ooooOOOOoooooo... ",
" ....ooooooooooooo.OOOooooo.... ",
" ...ooooOOOOOoooooooOOOOOOoo... ",
" ...ooooOOOO      ooOOOOOOoo... ",
" ...ooooOOO #####$ o..OOOOoo... ",
" ...oooo..O      #$ oo....oo... ",
" ...oooooo $ $ $ ## oooooooo... ",
" ...oooooo $ $ $ $# oooooooo... ",
" ...oooooo $$$$$$$# oooooooo... ",
"   ..oooooo #  ###  ooooooo..   ",
" ...oooooo   #### X  ooooooo... ",
" ...oooooo $X $ XX $# oooooo... ",
" ...ooooo  $X$## X $# oooooo... ",
" ...ooooo + X $ XX  + oooooo... ",
" ...ooooo   @ $ @@X   oooooo... ",
" ...ooooo. XXX XXXXX Ooooooo... ",
" ...oooooo XX + XXXX Ooooooo... ",
" ....ooooooooooooo.OOOooooo.... ",
" ...ooooooooooooooooOOOOoooo... ",
" ...oooooooooooooooooooooooo... ",
" ...oooooooooooo.ooooooooooo... ",
" ....ooooooooooo oooooooooo.... ",
" ............... .............. ",
"  .............. .............  ",
"   ............. ............   ",
"                                "
};
