/* XPM */
static char *out[] = {
/* columns rows colors chars-per-pixel */
"32 32 8 1 ",
"  c #25131A",
". c #36253B",
"X c #39334A",
"o c #463E57",
"O c #A33F14",
"+ c #D9701A",
"@ c #FFB64F",
"# c #F0E2C5",
/* pixels */
"                                ",
"............... .............   ",
"............... ..............  ",
"............... ............... ",
"XXXXXXXXXXXXXXX XXXXXXXXXXX.... ",
"XXXXXXXXXXXoooX.XXXXXXXXXXXX... ",
"XXXXoooooXXoooXXXXXXXXXXXXXX... ",
"XXXXoooooXX...XXXXXXXXXXXXXX... ",
"XXXXoooooXXXXXXXXXXoooooXXXX... ",
"XXXXoooooXXXXXXXXXXoooooXXXX... ",
"XXXX.....XXXXXXXXXXoooooXXXX... ",
"XXXXXXXXXXXXXXXXXXXooo..XXXX... ",
"XXXXXXXXXXXX   XXXX...XXXXXX... ",
"XXXXXXXXXXX @## XXXXXXXXXXXX... ",
"XXXXXXXXXX @@##@     XXXXXXX... ",
"XXXXXXXXXX @+ +@@@@@# XXXXX..   ",
"XXXXXXXXXX + X ++++++ XXXXXX... ",
"XXXXXXXXXX + X +  @O@ XXXXXX... ",
"XXXXXXXXXX +O O+  + + oXXXXX... ",
"XXXXXXXXXXX +++ XX o  oXXXXX... ",
"XXXXXXXXXXXX   XXXoooooXXXXX... ",
"XXXXXXXXXXXXXXXXXXooo..XXXXX... ",
"XXXXXXXXXXXXXXXXXX...XXXXXXX... ",
"XXXXXXXXXXXXXXXXXXXXXXXXXXX.... ",
"XXXXXXXXXXXXXXXXXXXXooXXXXXX... ",
"XXXXXXXXXXXXXXXXXXXXooXXXXXX... ",
"XXXXXXXXXXXXXXXXXXXX..XXXXXX... ",
"XXXXXXXXXXXXXXXXXXXXXXXXXXXX... ",
"XXXXXXXXXXXXXXXXXXXXXXXXXXXX... ",
"XXXXXXXXXXXXXXXXXXXXXXXXXXXX... ",
"XXXXXXXXXXXXXXXXXXXXXXXXXXXX... ",
"XXXXXXXXXXXXXXXXXXXXXXXXXXX..   "
};
