/* XPM */
static char *out[] = {
/* columns rows colors chars-per-pixel */
"32 32 8 1 ",
"  c #25131A",
". c #36253B",
"X c #39334A",
"o c #463E57",
"O c #A33F14",
"+ c #D9701A",
"@ c #FFB64F",
"# c #F0E2C5",
/* pixels */
" ...XXXXXXXXXXXXXXXXXXXXXXXXXXXX",
" ...XXXXXXXXXXXXXXXXXXXXXXXXXXXX",
" ...XXXXXXXXXXXXXXXXXXXXXXXXXXXX",
" ...XXXXXXXXXXXXXXXXXXXXXXXXXXXX",
" ...XXXXXXXXXXXXXXXXXXXXXXXXXXXX",
" ...XXXXXXXXXXXXXXXXXXXXoooooXXX",
" ...XXXXXXXXXXXXXXXXXXXXoooooXXX",
" ...XXXXXXXXXXXXXXXXXXXXooooooXX",
" ...XXXXXXXXXXXXXXXXXXXX.oooooXX",
" ...XXXXXXXXXXXXXXXXXXXXXoooooXX",
" ...XXXXXXXXXXXXXXXXXXXXX.....XX",
" ...XXXXXXXXXXXXXXXXXXXXXXXXXXXX",
" ...XXXXXXXXX  XXXXXXXXXXXXXXXXX",
" ...XXXXXXXX @@ XXXXXXXXXXXXXXXX",
" ...XXXXXXXX @@#   XXXXXXXXXXXXX",
"     .XXXXXX @+#@## XXXXXXXXXXXX",
" ...XXXXXXXX + ++++ XXXXXXXXXXXX",
" ...XXXXXXXX + +  @ XXXXXXXXXXXX",
" ...XXXXXXXX +O+  + ooooXXXXXXXX",
" ...XXXXXXXX OO Xo  ooooXXXXXXXX",
" ...XXXXXXXXX  XXoooooooXXXXXXXX",
" ...XXXXXXXXXXXXXooooooooooXXXXX",
" ...XXXXXXXXXXXXXooooooooooXXXXX",
" ...XXXXXXXXXXXXX....ooooooXXXXX",
" ...XXXXXXXXXXXXXXXXXooooooXXXXX",
" ...XXXXXXXXXXXXXXXXX......XXXXX",
" ...XXXXXXXXXXXXXXXXXXXXXXXXXXXX",
" ...XXXXXXXXXXXXXXXXXXXXXXXXXXXX",
" ...XXXXXXXXXXXXXXXXXXXXXXXXXXXX",
" ...XXXXXXXXXXXXXXXXXXXXXXXXXXXX",
" ...XXXXXXXXXXXXXXXXXXXXXXXXXXXX",
"     .XXXXXXXXXXXXXXXXXXXXXXXXXX"
};
