/* XPM */
static char *out[] = {
/* columns rows colors chars-per-pixel */
"32 32 8 1 ",
"  c #25131A",
". c #36253B",
"X c #39334A",
"o c #463E57",
"O c #A33F14",
"+ c #D9701A",
"@ c #FFB64F",
"# c #F0E2C5",
/* pixels */
" ...XXXXXXXXXXXXXXXXXXXXXXXXXXXX",
" ...XXXXXXXXXXXXXXXXXXXXXXXXXXXX",
" ...XXXXXXXXXXXXXXXXXXXXXXXXXXXX",
" ...XXXXXXXXXXXXXXXXXXXXXXXXXXXX",
" ...XXXXXXXXXXXXXXXXXXXXXXXXXXXX",
" ...XXXXXXXXXXXXXXXXXXXXoooooXXX",
" ...XXXXXXXXXXXXXXXXXXXXoooooXXX",
" ...XXXXXXXXXXXXXXXXXXXXooooooXX",
" ...XXXXXXXXXXXXXXXXXXXX.oooooXX",
" ...XXXXXXXXXXXXXXXXXXXXXoooooXX",
" ...XXXXXXXXXXXXXXXXXXXXX.....XX",
" ...XXXXXXXXXXXXXXXXXXXXXXXXXXXX",
" ...XXXXXXXXXXXXX   XXXXXXXXXXXX",
" ...XXXXXXXXXXXX ##@ XXXXXXXXXXX",
" ...XXXXXXX     @##@@ XXXXXXXXXX",
"     .XXXX #@@@@@+ +@ XXXXXXXXXX",
" ...XXXXXX ++++++ X + XXXXXXXXXX",
" ...XXXXXX @O@  + X + XXXXXXXXXX",
" ...XXXXXX + +  +O O+ ooXXXXXXXX",
" ...XXXXXX  X XX +++ oooXXXXXXXX",
" ...XXXXXXXXXXXXX   ooooXXXXXXXX",
" ...XXXXXXXXXXXXXooooooooooXXXXX",
" ...XXXXXXXXXXXXXooooooooooXXXXX",
" ...XXXXXXXXXXXXX....ooooooXXXXX",
" ...XXXXXXXXXXXXXXXXXooooooXXXXX",
" ...XXXXXXXXXXXXXXXXX......XXXXX",
" ...XXXXXXXXXXXXXXXXXXXXXXXXXXXX",
" ...XXXXXXXXXXXXXXXXXXXXXXXXXXXX",
" ...XXXXXXXXXXXXXXXXXXXXXXXXXXXX",
" ...XXXXXXXXXXXXXXXXXXXXXXXXXXXX",
" ...XXXXXXXXXXXXXXXXXXXXXXXXXXXX",
"     .XXXXXXXXXXXXXXXXXXXXXXXXXX"
};
