/* XPM */
static char *out[] = {
/* columns rows colors chars-per-pixel */
"32 32 9 1 ",
"  c #25131A",
". c #36253B",
"X c #373737",
"o c #39334A",
"O c #463E57",
"+ c #895A45",
"@ c #BF704D",
"# c #90919E",
"$ c #ADC1CF",
/* pixels */
"                                ",
"   ............. ...............",
"  .............. ...............",
" ............... ...............",
" ....ooooooooooo ooooooooooooooo",
" ...oooooooooooo.oOOOooooooooooo",
" ...ooooooooooooooOOOooOOOOOoooo",
" ...oooooooooooooo...ooOOOOOoooo",
" ...ooooOOOOOooooooooooOOOOOoooo",
" ...ooooOOOO      oooooOOOOOoooo",
" ...ooooOOO #####$ oooo.....oooo",
" ...oooo..O      #$ oooooooooooo",
" ...oooooo $ $ $ ## oooooooooooo",
" ...oooooo $ $ $ $# oooooooooooo",
" ...oooooo $$$$$$$# oooooooooooo",
"   ..oooooo #  ###  oooooooooooo",
" ...oooooo   #### X  ooooooooooo",
" ...oooooo $X $ XX $# oooooooooo",
" ...ooooo  $X$## X $# OOOooooooo",
" ...ooooo + X $ XX  + OOOooooooo",
" ...ooooo   @ $ @@X   OOOooooooo",
" ...oooooo XXX XXXXX OOOOooooooo",
" ...oooooo XX + XXXX ....ooooooo",
" ....ooooooooooooooooooooooooooo",
" ...oooooooooooooo...ooOOOOOoooo",
" ...ooooooooooooooOOOooOOOOOoooo",
" ...oooooooooooo.oOOOooooooooooo",
" ....ooooooooooo ooooooooooooooo",
" ............... ...............",
"  .............. ...............",
"   ............. ...............",
"                                "
};
