/* XPM */
static char *out[] = {
/* columns rows colors chars-per-pixel */
"32 32 9 1 ",
"  c #25131A",
". c #36253B",
"X c #373737",
"o c #39334A",
"O c #463E57",
"+ c #895A45",
"@ c #BF704D",
"# c #90919E",
"$ c #ADC1CF",
/* pixels */
"oooooooooooooooooooooooooooooooo",
"oooooooooooooooooooooooooooooooo",
"oooooooooooooooooOOOOOOOoooooooo",
"oooooooooooooooooOOOOOOOoooooooo",
"oooooooooooooooooOOOOOOOoooooooo",
"ooooooooOOOOOooooOOOOOOOOOOooooo",
"ooooooooOOOOOooooOOOOOOOOOOooooo",
"ooooooooOOOOOOooo....OOOOOOooooo",
"oooooooo.OOOOOoooooooOOOOOOooooo",
"oooooooooOOO      ooo......ooooo",
"ooooooooo.. #####$ ooooooooooooo",
"ooooooooooo      #$ oooooooooooo",
"oooooooooo $ $ $ ## oooooooooooo",
"oooooooooo $ $ $ $# oooooooooooo",
"oooooooooo $$$$$$$# oooooooooooo",
"oooooooooo  #  ###X  ooooooooooo",
"oooooooooo $ ####  $# oooooooooo",
"ooooooooo  $X $ XX $# oooooooooo",
"ooooooooo + X$## X  + oooooooooo",
"ooooooooo   @ $ @++   oooooooooo",
"ooooooooooo X $ XXX oooooooooooo",
"oooooooooo XXX XXXXX ooooooooooo",
"oooooooooo XX + XXXX ooooooooooo",
"oooooooooooooooooooooooooooooooo",
"oooooooooooooooooooooooooooooooo",
"oooooooooooooooooooooooooooooooo",
"ooooooooooooooo.ooooooooooooooo.",
"ooooooooooooooo ooooooooooooooo ",
"............... ............... ",
"............... ............... ",
"............... ............... ",
"                                "
};
