/* XPM */
static char *out[] = {
/* columns rows colors chars-per-pixel */
"32 32 9 1 ",
"  c #25131A",
". c #36253B",
"X c #373737",
"o c #39334A",
"O c #463E57",
"+ c #895A45",
"@ c #BF704D",
"# c #90919E",
"$ c #ADC1CF",
/* pixels */
"                                ",
"   ............. ...............",
"  .............. ...............",
" ............... ...............",
" ....ooooooooooo ooooooooooooooo",
" ...oooooooooooo.oOOOooooooooooo",
" ...ooooooooooooooOOOooOOOOOoooo",
" ...oooooooooooooo...ooOOOOOoooo",
" ...ooooOOOO      oooooOOOOOoooo",
" ...ooooOOO #####$ ooooOOOOOoooo",
" ...ooooOOO      #$ ooo.....oooo",
" ...oooo.. $ $ $ ## oooooooooooo",
" ...oooooo $ $ $ $# oooooooooooo",
" ...oooooo $$$$$$$# oooooooooooo",
" ...ooooooo #  ###  oooooooooooo",
"   ..ooooo   #### X  ooooooooooo",
" ...oooooo $  $ XX $# oooooooooo",
" ...ooooo  $X$## X $# oooooooooo",
" ...ooooo + X $ XX  + OOOooooooo",
" ...ooooo   @ $ @++   OOOooooooo",
" ...ooooooo XX  XXX OOOOOooooooo",
" ...oooooo XX @ XXXX OOOOooooooo",
" ...oooooo XX + XXXX ....ooooooo",
" ....ooooooooooooooooooooooooooo",
" ...oooooooooooooo...ooOOOOOoooo",
" ...ooooooooooooooOOOooOOOOOoooo",
" ...oooooooooooo.oOOOooooooooooo",
" ....ooooooooooo ooooooooooooooo",
" ............... ...............",
"  .............. ...............",
"   ............. ...............",
"                                "
};
