/* XPM */
static char *result[] = {
/* columns rows colors chars-per-pixel */
"32 32 4 1 ",
"  c #25131A",
". c #36253B",
"X c #39334A",
"o c #463E57",
/* pixels */
"                                ",
" ............... ............   ",
" ............... .............  ",
" ............... .............. ",
" XXXXXXXXXXXXXXX XXXXXXXXXX.... ",
".XXXXXXXXXXXXXXX.XXXXXXXXXXX... ",
"XXXXXXXXXXXXXXXXXXXXXXXXXXXX... ",
"XXXXXoooooXXXXXXXXXXooooXXXX... ",
"XXXXXoooooXXXXXXXXXXooooooXX... ",
"XXooooooooXXXXXXXXXXooooooXX... ",
"XXooooooooXXXXXXXXXX..ooooXX... ",
"XXooooo...XXooXXXXXXXX....XX... ",
"XXoooooXXXXXooXXXXXXXXXXXXXX... ",
"XX.....XXXXX..XXXXXXXXXXXXXX... ",
"XXXXXXXXXXXXXXXXXXXXXXXXXXXX... ",
"XXXXXXXXXXXXXXXXXXXXXXXXXXX..   ",
"XXXXXXXXXXXXXXXXXXXXXXXXXXXX... ",
"XXXXXXXXXXXXXXXXXXXXXXXXXXXX... ",
"XXXXXXXXXXXXXXXXXXXXXXXXXXXX... ",
"XXXXXXXXXXXXXXXXXXXXXXXXXXXX... ",
"XXXXooooooXXXXXXXXXXXXXXXXXX... ",
"XXXXoooooooooXXXXXooXXXXXXXX... ",
"XXXXoooooooooXXXXoooXXXXXXXX... ",
"XXXX..oooooooXXXXoo.XXXXXXX.... ",
"XXXXXXoooooooXXXX..XXXXXXXXX... ",
"XXXXXX..oooooXXXXXXXXXooXXXX... ",
"XXXXXXXXoooooXXXXXXXXXooXXXX... ",
"XXXXXXXXoooooXXXXXXXXX..XXXX... ",
"XXXXXXXX.....XXXXXXXXXXXXXXX... ",
"XXXXXXXXXXXXXXXXXXXXXXXXXXXX... ",
"XXXXXXXXXXXXXXXXXXXXXXXXXXXX... ",
"                                "
};
