/* XPM */
static char *out[] = {
/* columns rows colors chars-per-pixel */
"32 32 7 1 ",
"  c #25131A",
". c #36253B",
"X c #39334A",
"o c #A33F14",
"O c #D9701A",
"+ c #FFB64F",
"@ c #F0E2C5",
/* pixels */
"                                ",
" ............... ...............",
" ............... ...............",
" ............... ...............",
" XXXXXXXXXXXXXXX XXXXXXXXXXXXXXX",
".XXXXXXXXXXXXXXX.XXXXXXXXXXXXXXX",
"XXXXXXXXXXXXXXXXXXXXXXXXXXXXXXXX",
"XXXXXXXXXXXXXXXXXXXXXXXXXXXXXXXX",
"XXXXXXXXXXXXXXXXXXXXXXXXXXXXXXXX",
"XXXXXXXXXXXXXXXXXXXXXXXXXXXXXXXX",
"XXXXXXXXXXXXXXXXXXXXXXXXXXXXXXXX",
"XXXXXXXXXXXXXXXXXXXXXXXXXXXXXXXX",
"XXXXXXXXXXXXX  XXXXXXXXXXXXXXXXX",
"XXXXXXXXXXXX ++ XXXXXXXXXXXXXXXX",
"XXXXXXXXXXXX ++@   XXXXXXXXXXXXX",
"XXXXXXXXXXXX +O@+@@ XXXXXXXXXXXX",
"XXXXXXXXXXXX O OOOO XXXXXXXXXXXX",
"XXXXXXXXXXXX O O  + XXXXXXXXXXXX",
"XXXXXXXXXXXX OoO  O XXXXXXXXXXXX",
"XXXXXXXXXXXX oo XX  XXXXXXXXXXXX",
"XXXXXXXXXXXXX  XXXXXXXXXXXXXXXXX",
"XXXXXXXXXXXXXXXXXXXXXXXXXXXXXXXX",
"XXXXXXXXXXXXXXXXXXXXXXXXXXXXXXXX",
"XXXXXXXXXXXXXXXXXXXXXXXXXXXXXXXX",
"XXXXXXXXXXXXXXXXXXXXXXXXXXXXXXXX",
"XXXXXXXXXXXXXXXXXXXXXXXXXXXXXXXX",
".XXXXXXXXXXXXXXX.XXXXXXXXXXXXXXX",
" XXXXXXXXXXXXXXX XXXXXXXXXXXXXXX",
" ............... ...............",
" ............... ...............",
" ............... ...............",
"                                "
};
