/* XPM */
static char *out[] = {
/* columns rows colors chars-per-pixel */
"32 32 7 1 ",
"  c #25131A",
". c #36253B",
"X c #39334A",
"o c #A33F14",
"O c #D9701A",
"+ c #FFB64F",
"@ c #F0E2C5",
/* pixels */
"                                ",
" ............... ...............",
" ............... ...............",
" ............... ...............",
" XXXXXXXXXXXXXXX XXXXXXXXXXXXXXX",
".XXXXXXXXXXXXXXX.XXXXXXXXXXXXXXX",
"XXXXXXXXXXXXXXXXXXXXXXXXXXXXXXXX",
"XXXXXXXXXXXXXXXXXXXXXXXXXXXXXXXX",
"XXXXXXXXXXXXXXXXXXXXXXXXXXXXXXXX",
"XXXXXXXXXXXXXXXXXXXXXXXXXXXXXXXX",
"XXXXXXXXXXXXXXXXXXXXXXXXXXXXXXXX",
"XXXXXXXXXXXXXXXXXXXXXXXXXXXXXXXX",
"XXXXXXXXXXXXXXXXX   XXXXXXXXXXXX",
"XXXXXXXXXXXXXXXX @@+ XXXXXXXXXXX",
"XXXXXXXXXXX     +@@++ XXXXXXXXXX",
"XXXXXXXXXX @+++++O O+ XXXXXXXXXX",
"XXXXXXXXXX OOOOOO X O XXXXXXXXXX",
"XXXXXXXXXX +o+  O X O XXXXXXXXXX",
"XXXXXXXXXX O O  Oo oO XXXXXXXXXX",
"XXXXXXXXXX  X XX OOO XXXXXXXXXXX",
"XXXXXXXXXXXXXXXXX   XXXXXXXXXXXX",
"XXXXXXXXXXXXXXXXXXXXXXXXXXXXXXXX",
"XXXXXXXXXXXXXXXXXXXXXXXXXXXXXXXX",
"XXXXXXXXXXXXXXXXXXXXXXXXXXXXXXXX",
"XXXXXXXXXXXXXXXXXXXXXXXXXXXXXXXX",
"XXXXXXXXXXXXXXXXXXXXXXXXXXXXXXXX",
".XXXXXXXXXXXXXXX.XXXXXXXXXXXXXXX",
" XXXXXXXXXXXXXXX XXXXXXXXXXXXXXX",
" ............... ...............",
" ............... ...............",
" ............... ...............",
"                                "
};
