/* XPM */
static char *out[] = {
/* columns rows colors chars-per-pixel */
"32 32 7 1 ",
"  c #25131A",
". c #36253B",
"X c #39334A",
"o c #A33F14",
"O c #D9701A",
"+ c #FFB64F",
"@ c #F0E2C5",
/* pixels */
"                                ",
" ............... ...............",
" ............... ...............",
" ............... ...............",
" XXXXXXXXXXXXXXX XXXXXXXXXXXXXXX",
".XXXXXXXXXXXXXXX.XXXXXXXXXXXXXXX",
"XXXXXXXXXXXXXXXXXXXXXXXXXXXXXXXX",
"XXXXXXXXXXXXXXXXXXXXXXXXXXXXXXXX",
"XXXXXXXXXXXXXXXXXXXXXXXXXXXXXXXX",
"XXXXXXXXXXXXXXXXXXXXXXXXXXXXXXXX",
"XXXXXXXXXXXXXXXXXXXXXXXXXXXXXXXX",
"XXXXXXXXXXXXXXXXXXXXXXXXXXXXXXXX",
"XXXXXXXXXXXX   XXXXXXXXXXXXXXXXX",
"XXXXXXXXXXX +@@ XXXXXXXXXXXXXXXX",
"XXXXXXXXXX ++@@+     XXXXXXXXXXX",
"XXXXXXXXXX +O O+++++@ XXXXXXXXXX",
"XXXXXXXXXX O X OOOOOO XXXXXXXXXX",
"XXXXXXXXXX O X O  +o+ XXXXXXXXXX",
"XXXXXXXXXX Oo oO  O O XXXXXXXXXX",
"XXXXXXXXXXX OOO XX X  XXXXXXXXXX",
"XXXXXXXXXXXX   XXXXXXXXXXXXXXXXX",
"XXXXXXXXXXXXXXXXXXXXXXXXXXXXXXXX",
"XXXXXXXXXXXXXXXXXXXXXXXXXXXXXXXX",
"XXXXXXXXXXXXXXXXXXXXXXXXXXXXXXXX",
"XXXXXXXXXXXXXXXXXXXXXXXXXXXXXXXX",
"XXXXXXXXXXXXXXXXXXXXXXXXXXXXXXXX",
".XXXXXXXXXXXXXXX.XXXXXXXXXXXXXXX",
" XXXXXXXXXXXXXXX XXXXXXXXXXXXXXX",
" ............... ...............",
" ............... ...............",
" ............... ...............",
"                                "
};
