/* XPM */
static char *out[] = {
/* columns rows colors chars-per-pixel */
"32 32 14 1 ",
"  c black",
". c gray7",
"X c #25131A",
"o c #36253B",
"O c #313B35",
"+ c #39334A",
"@ c #463E57",
"# c #44504F",
"$ c #64594F",
"% c #606E6D",
"& c #BC4C51",
"* c #9A8571",
"= c #E6A353",
"- c #CDD5D0",
/* pixels */
"XXXXXXXXXXXXXXXXXXXXXXXXXXXXXXXX",
"oooooooooooooooXoooooooooooooXXX",
"oooooooooooooooXooooooooooooooXX",
"oooooooooooooooXoooooooooooooooX",
"+++++++++++++++X+++++++++++ooooX",
"+++++++++++@@@+o++++++++++++oooX",
"++++@@@@@++@@@++++++++++++++oooX",
"++++@@@@@++ooo++++++++++++++oooX",
"++++@@@@@++++++++++@@@@@++++oooX",
"++++@@@@@+++++XXXXXX@@@@++++oooX",
"++++ooooo++++X......X@@@++++oooX",
"++++++++++++X.....#.X@oo++++oooX",
"++++++++++++..#OO%OO X++++++oooX",
"+++++++++++&.#%O-%O-X+++++++oooX",
"++++++++++..&#%##%##X+++++++oooX",
"+++++++++++++X#%%%%%X++++++ooXXX",
"++++++++++++XXXX-XX-X+++++++oooX",
"+++++++++++X*$******$X++++++oooX",
"+++++++++++X$***X=X*$X@+++++oooX",
"+++++++++++XXXXXXXXXXX@+++++oooX",
"++++++++++++X$$$$X$$X@@+++++oooX",
"++++++++++++X*$**X*$Xoo+++++oooX",
"+++++++++++X*$**XXX$X+++++++oooX",
"+++++++++++++++++++++++++++ooooX",
"++++++++++++++++++++@@++++++oooX",
"++++++++++++++++++++@@++++++oooX",
"++++++++++++++++++++oo++++++oooX",
"++++++++++++++++++++++++++++oooX",
"++++++++++++++++++++++++++++oooX",
"++++++++++++++++++++++++++++oooX",
"++++++++++++++++++++++++++++oooX",
"+++++++++++++++++++++++++++ooXXX"
};
