/* XPM */
static char *out[] = {
/* columns rows colors chars-per-pixel */
"32 32 9 1 ",
"  c #25131A",
". c #36253B",
"X c #373737",
"o c #39334A",
"O c #463E57",
"+ c #895A45",
"@ c #BF704D",
"# c #90919E",
"$ c #ADC1CF",
/* pixels */
"   ..ooooooooooooooooooooooooooo",
" ...oooooooooooooooooooooooooooo",
" ...oooooooooooooooooooooooooooo",
" ...oooooooooooooooooooooooooooo",
" ...oooooooooooooooooooooooooooo",
" ...oooooo..oooooooooooooooooooo",
" ...ooooooOOoooooooooooooooooooo",
" ...ooooooOOoooooooooooooooooooo",
" ....ooooooooooooooooooooooooooo",
" ...ooooooo.      oooooooooooooo",
" ...ooooo.. #####$ ooooooooooooo",
" ...oooooOO      #$ oooooooooooo",
" ...oooooO $ $ $ ## oooooooooooo",
" ...oooooO $ $ $ $# oooooooooooo",
" ...oooooo $$$$$$$# oooooooooooo",
" ...ooooooo #  ###  oooooooooooo",
"   ..ooooo   #### X  ooooooooooo",
" ...oooooo $X $ XX $# oooooooooo",
" ...ooooo  $X$## X $# oooooooooo",
" ...ooooo + X $ XX  + oooooooooo",
" ...oooo.   @ $ @@X   oooooooooo",
" ...ooooOO XXX XXXXX oo.....oooo",
" ...ooooOO XX + XXXX ooOOOOOoooo",
" ...ooooOOOOOooooooooooOOOOOoooo",
" ...oooooooooooooo...ooOOOOOoooo",
" ...ooooooooooooooOOOooOOOOOoooo",
" ...oooooooooooo.oOOOooooooooooo",
" ....ooooooooooo ooooooooooooooo",
" ............... ...............",
"  .............. ...............",
"   ............. ...............",
"                                "
};
