/* XPM */
static char *out[] = {
/* columns rows colors chars-per-pixel */
"32 32 16 1 ",
"  c #25131A",
". c #373737",
"X c #171A4F",
"o c #3D3347",
"O c #4A5462",
"+ c #7D7071",
"@ c #895A45",
"# c #BF704D",
"$ c #1D3798",
"% c #6D758D",
"& c #7084BB",
"* c #2FAEFF",
"= c #9E8E88",
"- c #90919E",
"; c #CFC2B0",
": c #ADC1CF",
/* pixels */
"oooooooooooooooooooooooooooooooo",
"oooooooooooooooooooooooooooooooo",
"oo++====++++++++++==++==++++==++",
"oo++====++++++++++==++==++++==++",
"oo========++++++++==++==++++====",
"oo========++++++++==++==++++====",
"++;;==========================;;",
"++;;==========================;;",
"++;;;;;;;;;;;;;;;;;;;;;;;;;;;;;;",
"++;;;;;;;;;;;;;;;;;;;;;;;;;;;;;;",
"oo++==&&&&==&&==&&==&&==&&&&==++",
"oo++==&&&&==&&==&&==&&==&&&&==++",
"oo====++$$OO$$OO$$OO$$OOXX++====",
"oo====++$$OO$$OO$$OO$$OOXX++====",
"oo&&&&XX$$%%$$%%$$%%$$%%$$XX&&&&",
"oo&&&&XX$$%%$$%%$$%%$$%%$$XX&&&&",
"oo&&&&XX$$%%$$**$$**$$%%$$XX&&&&",
"oo&&&&XX$$%%$$*      $%%$$XX&&&&",
"oo&&&&XX$$**$$ :----- **$$XX&&&&",
"oo&&&&XX$$**$ :-      **$$XX&&&&",
"oo++++XX$$**$ -- : : : *$$XX++++",
"oo++++XX$$**$ -: : : : *$$XX++++",
"oo====XX$$%%$ -::::::: %$$XX====",
"oo====XX$$%%$  ---  - %%$$XX====",
"oo++++XX$$%%  . ----   %$$XX++++",
"oo++++XX$$% -: .. : .: %$$XX++++",
"oo++++XXXXO -: . --:.:  XXXX++++",
"oo++++XXXXO @  .. : . @ XXXX++++",
"oo++++XXXXO   .## : #   XXXX++++",
"oo++++XXXXOO ..... ... OXXXX++++",
"             .... @ ..          ",
"                                "
};
