/* XPM */
static char *out[] = {
/* columns rows colors chars-per-pixel */
"32 32 14 1 ",
"  c black",
". c gray7",
"X c #25131A",
"o c #36253B",
"O c #313B35",
"+ c #39334A",
"@ c #463E57",
"# c #44504F",
"$ c #64594F",
"% c #606E6D",
"& c #BC4C51",
"* c #9A8571",
"= c #E6A353",
"- c #CDD5D0",
/* pixels */
"XXXoo+++++++++++++++++++++++++++",
"Xooo++++++++++++++++++++++++++++",
"Xooo++++++++++++++++++++++++++++",
"Xooo++++++++++++++++++++++++++++",
"Xooo++++++++++++++++++++++++++++",
"Xooo++++++oo++++++++++++++++++++",
"Xooo++++++@@++++++++++++++++++++",
"Xooo++++++@@++++++++++++++++++++",
"Xoooo+++++++++++++++++++++++++++",
"Xooo+++++++oooXXXXXX++++++++++++",
"Xooo+++++oo@@X......X+++++++++++",
"Xooo+++++@@@X.....#.X+++++++++++",
"Xooo+++++@@@..#OO%OO X++++++++++",
"Xooo+++++@@@.#%O-%O-X+++++++++++",
"Xooo+++++++&.#%##%##X+++++++++++",
"Xooo++++++..&X#%%%%%X+++++++++++",
"XXXoo+++++++XXXX-XX-X+++++++++++",
"Xooo+++++++X*$******$X++++++++++",
"Xooo+++++++X$***X=X*$X++++++++++",
"Xooo++++++oXXXXXXXXXXX++++++++++",
"Xooo++++oo@@X*$$$X$$X+++++++++++",
"Xooo++++@@@X*$$**X*$X++ooooo++++",
"Xooo++++@@@X*$**XXX*$X+@@@@@++++",
"Xooo++++@@@@@++++++++++@@@@@++++",
"Xooo++++++++++++++ooo++@@@@@++++",
"Xooo++++++++++++++@@@++@@@@@++++",
"Xooo++++++++++++o+@@@+++++++++++",
"Xoooo+++++++++++X+++++++++++++++",
"XoooooooooooooooXooooooooooooooo",
"XXooooooooooooooXooooooooooooooo",
"XXXoooooooooooooXooooooooooooooo",
"XXXXXXXXXXXXXXXXXXXXXXXXXXXXXXXX"
};
