/* XPM */
static char *out[] = {
/* columns rows colors chars-per-pixel */
"32 32 14 1 ",
"  c black",
". c gray7",
"X c #25131A",
"o c #36253B",
"O c #313B35",
"+ c #39334A",
"@ c #463E57",
"# c #44504F",
"$ c #64594F",
"% c #606E6D",
"& c #BC4C51",
"* c #9A8571",
"= c #E6A353",
"- c #CDD5D0",
/* pixels */
"XXXXXXXXXXXXXXXXXXXXXXXXXXXXXXXX",
"XXXoooooooooooooXooooooooooooooo",
"XXooooooooooooooXooooooooooooooo",
"XoooooooooooooooXooooooooooooooo",
"Xoooo+++++++++++X+++++++++++++++",
"Xooo++++++++++++o+@@@+++++++++++",
"Xooo++++++++++++++@@@++@@@@@++++",
"Xooo++++++++++++++ooo++@@@@@++++",
"Xooo++++@@@@@++++++++++@@@@@++++",
"Xooo++++@@@@XXXXXX+++++@@@@@++++",
"Xooo++++@@@X......X++++ooooo++++",
"Xooo++++oo@X.#.....X++++++++++++",
"Xooo++++++X OO%OO#..++++++++++++",
"Xooo+++++++X-O%-O%#.++++++++++++",
"Xooo+++++++X##%##%#.&+++++++++++",
"XXXoo++++++X%%%%%#X&..++++++++++",
"Xooo+++++++X-XX-XXXX++++++++++++",
"Xooo++++++X$******$*X+++++++++++",
"Xooo+++++@X$*X=X***$X+++++++++++",
"Xooo+++++@XXXXXXXXXXX+++++++++++",
"Xooo+++++@@X$$X$$$*X++++++++++++",
"Xooo+++++ooX$*X**$$*X+++++++++++",
"Xooo++++++X$*XXX**$*X+++++++++++",
"Xoooo+++++++++++++++++++++++++++",
"Xooo++++++@@++++++++++++++++++++",
"Xooo++++++@@++++++++++++++++++++",
"Xooo++++++oo++++++++++++++++++++",
"Xooo++++++++++++++++++++++++++++",
"Xooo++++++++++++++++++++++++++++",
"Xooo++++++++++++++++++++++++++++",
"Xooo++++++++++++++++++++++++++++",
"XXXoo+++++++++++++++++++++++++++"
};
