/* XPM */
static char *result[] = {
/* columns rows colors chars-per-pixel */
"32 32 11 1 ",
"  c #39334A",
". c #36253B",
"X c #25131A",
"o c #3D3347",
"O c #574057",
"+ c #595059",
"@ c #6B616B",
"# c #7D7071",
"$ c #9E8E88",
"% c #CFC2B0",
"& c white",
/* pixels */
"                                ",
"                                ",
"                                ",
"                                ",
"                                ",
"                                ",
"                                ",
"                                ",
"                                ",
"                                ",
".               .               ",
"X               X               ",
"X...............X...............",
"X...............X...............",
"X...............X...............",
"XXXXXXXXXXXXXXXXXXXXXXXXXXXXXXXX",
"XXXXXXXXXXXXXXXXXXXXXXXXXXXXXXXX",
"oOOOOOOOOXOOOOOOoOOOOOOOOOXOOOOO",
"oOO+++++OXOOOOOOoOOOOOOOOOXOOOOO",
"o++++++++o++++++o++++++OOOo+++OO",
"oooooooXXXXXoooooooooo+ooooooooo",
"o@@####o@@#####@o@####+@######@@",
"o@@####o++#####@o@###@+@@@@@@@@@",
"o++++++o++++++++o+++++o+++++++++",
"oooooooooooooooooooooooooooooooo",
"o$$$$$$$$$$$$$$$o$$$$$$$$$$$$$$$",
"o$$$$$$$$$$$$$$$o$$$$$$$$$$$$$$$",
"#%%%%%%%%%%%%%%%#%%%%%%%%%%%%%%%",
"#%$$$$$$$$$$$$$%#%$$$$$$$$$$$$$$",
"o$$$$####$#$##$$o$$########$$$#$",
"o#$$#####$#$##$#o#$########$$$##",
"oooooooooooooooooooooooooooooooo"
};
