/* XPM */
static char *result[] = {
/* columns rows colors chars-per-pixel */
"32 32 10 1 ",
"  c #25131A",
". c #36253B",
"X c #3D3347",
"o c #39334A",
"O c #574057",
"+ c #595059",
"@ c #6B616B",
"# c #7D7071",
"$ c #9E8E88",
"% c #CFC2B0",
/* pixels */
"XXXXXXXXXXXXXXXX ...oooooooooooo",
"X#$##$$$$$$$#### ...oooooooooooo",
"X$$##$$$$$$$###$ ...oooooooooooo",
"X$$$$$$$$$$$$$$$ ...oooooooooooo",
"X$$$%%%%%%%%%%%% ...oooooooooooo",
"X#####$$$$$$$$$$ ...oooooooooooo",
"X#####$$$$$$$$$$ ...oooooooooooo",
"XXXXXXXXXXXXXXXX ...oooooooooooo",
"X+++++X+++++++++ ...oooooooooooo",
"X+++@@+@@@@@@@@@ ...oooooooooooo",
"X+++@@X@######@# ...oooooooooooo",
"XXXXXXXXXXXXXXXX ...oooooooooooo",
"XOOOOOOOOO OOOOO ...oooooooooooo",
"XOOOOOOOOO OOOOO ...oooooooooooo",
"XOOOOOOOOO OOOOO ...oooooooooooo",
"                     .oooooooooo",
"XXXXXXXXXXXXXXXX ...oooooooooooo",
"X#$##$$$$$$$#### ...oooooooooooo",
"X$$##$$$$$$$###$ ...oooooooooooo",
"X$$$$$$$$$$$$$$$ ...oooooooooooo",
"X$$$%%%%%%%%%%%% ...oooooooooooo",
"X#####$$$$$$$$$$ ...oooooooooooo",
"X#####$$$$$$$$$$ ...oooooooooooo",
"XXXXXXXXXXXXXXXX ...oooooooooooo",
"X+++++X+++++++++ ...oooooooooooo",
"X+++@@+@@@@@@@@@ ...oooooooooooo",
"X+++@@X@######@# ...oooooooooooo",
"XXXXXXXXXXXXXXXX ...oooooooooooo",
"XOOOOOOOOO OOOOO ...oooooooooooo",
"XOOOOOOOOO OOOOO ...oooooooooooo",
"XOOOOOOOOO OOOOO ...oooooooooooo",
"                     .oooooooooo"
};
