/* XPM */
static char *result[] = {
/* columns rows colors chars-per-pixel */
"32 32 11 1 ",
"  c #39334A",
". c #36253B",
"X c #25131A",
"o c #574057",
"O c #3D3347",
"+ c #7D7071",
"@ c #6B616B",
"# c #595059",
"$ c #9E8E88",
"% c #CFC2B0",
"& c white",
/* pixels */
"          .XXXXXXXXXXXXXXXXXXXXX",
"            ...XoooooXoooooooooO",
"            ...XoooooXoooooooooO",
"            ...XoooooXoooooooooO",
"            ...XOOOOOOOOOOOOOOOO",
"            ...X+@++++++@O@@###O",
"            ...X@@@@@@@@@#@@###O",
"            ...X#########O#####O",
"            ...XOOOOOOOOOOOOOOOO",
"            ...X$$$$$$$$$$+++++O",
"            ...X$$$$$$$$$$+++++O",
"            ...X%%%%%%%%%%%%$$$O",
"            ...X$$$$$$$$$$$$$$$O",
"            ...X$+++$$$$$$$++$$O",
"            ...X++++$$$$$$$++$+O",
"            ...XOOOOOOOOOOOOOOOO",
"          .XXXXXXXXXXXXXXXXXXXXX",
"            ...XoooooXoooooooooO",
"            ...XoooooXoooooooooO",
"            ...XoooooXoooooooooO",
"            ...XOOOOOOOOOOOOOOOO",
"            ...X+@++++++@O@@###O",
"            ...X@@@@@@@@@#@@###O",
"            ...X#########O#####O",
"            ...XOOOOOOOOOOOOOOOO",
"            ...X$$$$$$$$$$+++++O",
"            ...X$$$$$$$$$$+++++O",
"            ...X%%%%%%%%%%%%$$$O",
"            ...X$$$$$$$$$$$$$$$O",
"            ...X$+++$$$$$$$++$$O",
"            ...X++++$$$$$$$++$+O",
"            ...XOOOOOOOOOOOOOOOO"
};
