/* XPM */
static char *result[] = {
/* columns rows colors chars-per-pixel */
"32 32 11 1 ",
"  c #3D3347",
". c #7D7071",
"X c #9E8E88",
"o c #CFC2B0",
"O c #595059",
"+ c #6B616B",
"@ c #25131A",
"# c #574057",
"$ c #36253B",
"% c #39334A",
"& c white",
/* pixels */
"                                ",
" .XX.....X.X..X. .X........XXX..",
" XXXX....X.X..XX XX........XXX.X",
".oXXXXXXXXXXXXXo.oXXXXXXXXXXXXXX",
".ooooooooooooooo.ooooooooooooooo",
" XXXXXXXXXXXXXXX XXXXXXXXXXXXXXX",
" XXXXXXXXXXXXXXX XXXXXXXXXXXXXXX",
"                                ",
" OOOOOO OOOOOOOO OOOOO OOOOOOOOO",
" ++.... OO.....+ +...+O+++++++++",
" ++.... ++.....+ +....O+......++",
"       @@@@@          O         ",
" OOOOOOOO OOOOOO OOOOOO### OOO##",
" ##OOOOO#@###### #########@#####",
" ########@###### #########@#####",
"@@@@@@@@@@@@@@@@@@@@@@@@@@@@@@@@",
"@@@@@@@@@@@@@@@@@@@@@@@@@@@@@@@@",
"@$$$$$$$$$$$$$$$@$$$$$$$$$$$$$$$",
"@$$$$$$$$$$$$$$$@$$$$$$$$$$$$$$$",
"@$$$$$$$$$$$$$$$@$$$$$$$$$$$$$$$",
"@%%%%%%%%%%%%%%%@%%%%%%%%%%%%%%%",
"$%%%%%%%%%%%%%%%$%%%%%%%%%%%%%%%",
"%%%%%%%%%%%%%%%%%%%%%%%%%%%%%%%%",
"%%%%%%%%%%%%%%%%%%%%%%%%%%%%%%%%",
"%%%%%%%%%%%%%%%%%%%%%%%%%%%%%%%%",
"%%%%%%%%%%%%%%%%%%%%%%%%%%%%%%%%",
"%%%%%%%%%%%%%%%%%%%%%%%%%%%%%%%%",
"%%%%%%%%%%%%%%%%%%%%%%%%%%%%%%%%",
"%%%%%%%%%%%%%%%%%%%%%%%%%%%%%%%%",
"%%%%%%%%%%%%%%%%%%%%%%%%%%%%%%%%",
"%%%%%%%%%%%%%%%%%%%%%%%%%%%%%%%%",
"%%%%%%%%%%%%%%%%%%%%%%%%%%%%%%%%"
};
