/* XPM */
static char *result[] = {
/* columns rows colors chars-per-pixel */
"32 32 10 1 ",
"  c #39334A",
". c #463E57",
"X c #36253B",
"o c #25131A",
"O c #90919E",
"+ c #ADC1CF",
"@ c #373737",
"# c #895A45",
"$ c #BF704D",
"% c white",
/* pixels */
"                                ",
"                    ...         ",
"                    ...  .....  ",
"                    XXX  .....  ",
"                         .....  ",
"     ....    ... ....... .....  ",
"     ....    ... ....... XXXXX  ",
"     .... ...... .......        ",
" ... XXXX ..oooooo............. ",
" ...      .oOOOOO+o............ ",
" ...      .ooooooO+o........... ",
" .........o+o+o+oOOo........... ",
" .........o+o+o+o+Oo........... ",
" .........o+++++++Oo........... ",
" ..........oOooOOOoo.......XXXX ",
" XXXXX.....ooOOOOo@o.......     ",
"      ....oo@o+o@@@oo......     ",
"      ....o+@+OOo@o+Oo.....     ",
"      ...oo+@o+o@@o+Oo.....     ",
"      ...o#o$o+o$#oo#o.....     ",
"      ...ooo@@oo@@@ooo.....     ",
"      ....o@@o$o@@@@oXXXXXX     ",
"      ....o@@o#o@@@@o           ",
"      ..........                ",
"      XXXXXXXXXX         ....  X",
"  ...                    ...... ",
"  ...                    ...... ",
"  ...                    XX.... ",
"  ...                      XXXX ",
"  XXX                           ",
"                                ",
"                                "
};
