/* XPM */
static char *out[] = {
/* columns rows colors chars-per-pixel */
"32 32 8 1 ",
"  c #25131A",
". c #36253B",
"X c #373737",
"o c #39334A",
"O c #895A45",
"+ c #BF704D",
"@ c #90919E",
"# c #ADC1CF",
/* pixels */
" ...oooooooooooooooooooooooo... ",
" ...oooooooooooooooooooooooo... ",
" ...oooooooooooooooooooooooo... ",
" ...oooooooooooooooooooooooo... ",
" ...oooooooooooooooooooooooo... ",
" ...oooooooooooooooooooooooo... ",
" ...oooooooooooooooooooooooo... ",
" ...oooooooooooooooooooooooo... ",
" ...oooooooooooooooooooooooo... ",
" ...oooooooooo      oooooooo... ",
" ...ooooooooo #@@@@@ ooooooo... ",
" ...oooooooo #@      ooooooo... ",
" ...oooooooo @@ # # # oooooo... ",
" ...oooooooo @# # # # oooooo... ",
" ...oooooooo @####### oooooo... ",
"     .oooooo  @@@  @ ooooo.     ",
" ...ooooooo  X @@@@   oooooo... ",
" ...oooooo @# XX # X# oooooo... ",
" ...oooooo @# X @@#X#  ooooo... ",
" ...oooooo O  XX # X O ooooo... ",
" ...oooooo   X++ # +   ooooo... ",
" ...ooooooo XXXXX XXX oooooo... ",
" ...ooooooo XXXX O XX oooooo... ",
" ...oooooooooooooooooooooooo... ",
" ...oooooooooooooooooooooooo... ",
" ...oooooooooooooooooooooooo... ",
" ...oooooooooooooooooooooooo... ",
" ...oooooooooooooooooooooooo... ",
" ...oooooooooooooooooooooooo... ",
" ...oooooooooooooooooooooooo... ",
" ...oooooooooooooooooooooooo... ",
"     .oooooooooooooooooooo.     "
};
