/* XPM */
static char *out[] = {
/* columns rows colors chars-per-pixel */
"32 32 9 1 ",
"  c #25131A",
". c #36253B",
"X c #373737",
"o c #39334A",
"O c #463E57",
"+ c #895A45",
"@ c #BF704D",
"# c #90919E",
"$ c #ADC1CF",
/* pixels */
"oooooooooooooooooooooooooo.     ",
"oooooooooooooooooooooooooooo... ",
"oooooooooooooooooooooooooooo... ",
"oooooooooooooooooooooooooooo... ",
"oooooooooooooooooooooooooooo... ",
"ooooooooOOOOOooooooooooooooo... ",
"ooooooooOOOOOooooooooooooooo... ",
"ooooooooOOOOOOoooooooooooooo... ",
"oooooooo.OOO      oooooooooo... ",
"oooooooooOO #####$ ooooooooo... ",
"ooooooooo..      #$ oooooooo... ",
"oooooooooo $ $ $ ## oooooooo... ",
"oooooooooo $ $ $ $# oooooooo... ",
"oooooooooo $$$$$$$# oooooooo... ",
"ooooooooooo #  ###  oooooooo... ",
"ooooooooooo  #### X oooooooo... ",
"oooooooooo  X $ XXX  ooooo.     ",
"oooooooooo $X$## X $# oooooo... ",
"oOOOOOOOo  $X $ XX $# oooooo... ",
"oOOOOOOOo + @ $ @+  + oooooo... ",
"oOOOOOOOo   XX  XXX   oooooo... ",
"oOOOOOOOOO XX @ XXXX ooooooo... ",
"oOOOOOOOOO XX + XXXX ooooooo... ",
"o....OOOOOOooooooooooooooooo... ",
"oooooOOOOOOooooooooooooooooo... ",
"ooooo......ooooooooooooooooo... ",
"oooooooooooooooooooooooooooo... ",
"oooooooooooooooooooooooooooo... ",
"oooooooooooooooooooooooooooo... ",
"oooooooooooooooooooooooooooo... ",
"oooooooooooooooooooooooooooo... ",
"oooooooooooooooooooooooooooo... "
};
