/* XPM */
static char *out[] = {
/* columns rows colors chars-per-pixel */
"32 32 14 1 ",
"  c black",
". c gray7",
"X c #25131A",
"o c #36253B",
"O c #313B35",
"+ c #39334A",
"@ c #463E57",
"# c #44504F",
"$ c #64594F",
"% c #606E6D",
"& c #BC4C51",
"* c #9A8571",
"= c #E6A353",
"- c #CDD5D0",
/* pixels */
"XXXXXXXXXXXXXXXXXXXXXXXXXXXXXXXX",
"oooooooooooooooXoooooooooooooXXX",
"oooooooooooooooXooooooooooooooXX",
"oooooooooooooooXoooooooooooooooX",
"+++++++++++++++X+++++++++++ooooX",
"+++++++++++@@@+o++++++++++++oooX",
"++++@@@@@++@@@++++++++++++++oooX",
"++++@@@@@++ooo++++++++++++++oooX",
"++++@@@@@+++++XXXXXX@@@@++++oooX",
"++++@@@@@++++X......X@@@++++oooX",
"++++ooooo+++X.....#.X@@@++++oooX",
"++++++++++++..#OO%OO Xoo++++oooX",
"++++++++++++.#%O-%O-Xo++++++oooX",
"+++++++++++&.#%##%##X+++++++oooX",
"++++++++++..&X#%%%%%X+++++++oooX",
"++++++++++++XXXX-XX-X++++++ooXXX",
"+++++++++++X*$******$X++++++oooX",
"+++++++++++X$***X*X*$X++++++oooX",
"+++++++@@@@XXXXXX=XXXX++++++oooX",
"+++++++@@@@@X$$$$X$$X+++++++oooX",
"+++++++@@@@@X*$**X*$X+++++++oooX",
"+++++++@@@@X*$$**X**$X++++++oooX",
"+++++++oooX*$$**XXX*$X++++++oooX",
"+++++++++++++++++++++++++++ooooX",
"++++@@@@@++ooo++++++++++++++oooX",
"++++@@@@@++@@@++++++++++++++oooX",
"+++++++++++@@@+o++++++++++++oooX",
"+++++++++++++++X+++++++++++ooooX",
"oooooooooooooooXoooooooooooooooX",
"oooooooooooooooXooooooooooooooXX",
"oooooooooooooooXoooooooooooooXXX",
"XXXXXXXXXXXXXXXXXXXXXXXXXXXXXXXX"
};
