/* XPM */
static char *result[] = {
/* columns rows colors chars-per-pixel */
"32 32 11 1 ",
"  c #25131A",
". c #36253B",
"X c #3D3347",
"o c #39334A",
"O c #463E57",
"+ c #574057",
"@ c #595059",
"# c #6B616B",
"$ c #7D7071",
"% c #9E8E88",
"& c #CFC2B0",
/* pixels */
"XXXXXXXXXXXXXXXXXXXXXXXXXXXXXXXX",
"X$%$$%%%%%%%$$$$X$%$$%%%%%%%$$$$",
"X%%$$%%%%%%%$$$%X%%$$%%%%%%%$$$%",
"X%%%%%%%%%%%%%%%X%%%%%%%%%%%%%%%",
"X%%%&&&&&&&&&&&&X%%%&&&&&&&&&&&&",
"X$$$$$%%%%%%%%%%X$$$$$%%%%%%%%%%",
"X$$$$$%%%%%%%%%%X$$$$$%%%%%%%%%%",
"XXXXXXXXXXXXXXXXXXXXXXXXXXXXXXXX",
"X@@@@@X@@@@@@@@@X@@@@@X@@@@@@@@@",
"X@@@##@#########X@@@##@#########",
"X@@@##X#$$$$$$#$X@@@##X#$$$$$$#$",
"XXXXXXXXXXXXXXXXXXXXXXXXXXXXXXXX",
"X+++++++++ +++++X+++++++++ +++++",
"X+++++++++ +++++X+++++++++ +++++",
"X+++++++++ +++++X+++++++++ +++++",
"                                ",
"XXXXXXXXXXXXXXXX                ",
"X$%$$%%%%%%%$$$$   .............",
"X%%$$%%%%%%%$$$%  ..............",
"X%%%%%%%%%%%%%%% ...............",
"X%%%&&&&&&&&&&&& ....ooooooooooo",
"X$$$$$%%%%%%%%%% ...oooooooooooo",
"X$$$$$%%%%%%%%%% ...oooooooooooo",
"XXXXXXXXXXXXXXXX ...oooooooooooo",
"X@@@@@X@@@@@@@@@ ...ooooOOOOOooo",
"X@@@##@######### ...ooooOOOOOooo",
"X@@@##X#$$$$$$#$ ...ooooOOOOOooo",
"XXXXXXXXXXXXXXXX ...oooo..OOOooo",
"X+++++++++ +++++ ...oooooo...ooo",
"X+++++++++ +++++ ...oooooooooooo",
"X+++++++++ +++++ ...oooooooooooo",
"                   ..ooooooooooo"
};
