/* XPM */
static char *result[] = {
/* columns rows colors chars-per-pixel */
"32 32 12 1 ",
"  c #25131A",
". c #36253B",
"X c #39334A",
"o c #3D3347",
"O c #574057",
"+ c #463E57",
"@ c #595059",
"# c #6B616B",
"$ c #7D7071",
"% c #9E8E88",
"& c #CFC2B0",
"* c white",
/* pixels */
"                   ..XXXXXXXXXXX",
"oOOOOOOOOO OOOOO ...XXXXXXXXXXXX",
"oOOOOOOOOO OOOOO ...XXXXXXXXXXXX",
"oOOOOOOOOO OOOOO ...XXXXXX...XXX",
"oooooooooooooooo ...XXXX..+++XXX",
"o@@@##o#$$$$$$#$ ...XXXX+++++XXX",
"o@@@##@######### ...XXXX+++++XXX",
"o@@@@@o@@@@@@@@@ ...XXXX+++++XXX",
"oooooooooooooooo ...XXXXXXXXXXXX",
"o$$$$$%%%%%%%%%% ...XXXXXXXXXXXX",
"o$$$$$%%%%%%%%%% ...XXXXXXXXXXXX",
"o%%%&&&&&&&&&&&& ....XXXXXXXXXXX",
"o%%%%%%%%%%%%%%% ...............",
"o%%$$%%%%%%%$$$%  ..............",
"o$%$$%%%%%%%$$$$   .............",
"oooooooooooooooo                ",
"                                ",
"oOOOOOOOOO OOOOOoOOOOOOOOO OOOOO",
"oOOOOOOOOO OOOOOoOOOOOOOOO OOOOO",
"oOOOOOOOOO OOOOOoOOOOOOOOO OOOOO",
"oooooooooooooooooooooooooooooooo",
"o@@@##o#$$$$$$#$o@@@##o#$$$$$$#$",
"o@@@##@#########o@@@##@#########",
"o@@@@@o@@@@@@@@@o@@@@@o@@@@@@@@@",
"oooooooooooooooooooooooooooooooo",
"o$$$$$%%%%%%%%%%o$$$$$%%%%%%%%%%",
"o$$$$$%%%%%%%%%%o$$$$$%%%%%%%%%%",
"o%%%&&&&&&&&&&&&o%%%&&&&&&&&&&&&",
"o%%%%%%%%%%%%%%%o%%%%%%%%%%%%%%%",
"o%%$$%%%%%%%$$$%o%%$$%%%%%%%$$$%",
"o$%$$%%%%%%%$$$$o$%$$%%%%%%%$$$$",
"oooooooooooooooooooooooooooooooo"
};
