/* XPM */
static char *result[] = {
/* columns rows colors chars-per-pixel */
"32 32 12 1 ",
"  c #3D3347",
". c #7D7071",
"X c #9E8E88",
"o c #CFC2B0",
"O c #595059",
"+ c #6B616B",
"@ c #574057",
"# c #25131A",
"$ c #36253B",
"% c #39334A",
"& c #463E57",
"* c white",
/* pixels */
"                                ",
"....XXXXXXX..X. ....XXXXXXX..X. ",
"X...XXXXXXX..XX X...XXXXXXX..XX ",
"XXXXXXXXXXXXXXX XXXXXXXXXXXXXXX ",
"ooooooooooooXXX ooooooooooooXXX ",
"XXXXXXXXXX..... XXXXXXXXXX..... ",
"XXXXXXXXXX..... XXXXXXXXXX..... ",
"                                ",
"OOOOOOOOO OOOOO OOOOOOOOO OOOOO ",
"+++++++++O++OOO +++++++++O++OOO ",
".+......+ ++OOO .+......+ ++OOO ",
"                                ",
"@@@@@#@@@@@@@@@ @@@@@#@@@@@@@@@ ",
"@@@@@#@@@@@@@@@ @@@@@#@@@@@@@@@ ",
"@@@@@#@@@@@@@@@ @@@@@#@@@@@@@@@ ",
"################################",
"################                ",
"$$$$$$$$$$$$$###....XXXXXXX..X. ",
"$$$$$$$$$$$$$$##X...XXXXXXX..XX ",
"$$$$$$$$$$$$$$$#XXXXXXXXXXXXXXX ",
"%%%%%%%%%%%$$$$#ooooooooooooXXX ",
"%%%%%%%%%%%%$$$#XXXXXXXXXX..... ",
"%%%%%%%%%%%%$$$#XXXXXXXXXX..... ",
"%%%%%%%%%%%%$$$#                ",
"%%%&&&&&%%%%$$$#OOOOOOOOO OOOOO ",
"%%%&&&&&%%%%$$$#+++++++++O++OOO ",
"%%%&&&&&%%%%$$$#.+......+ ++OOO ",
"%%%&&&$$%%%%$$$#                ",
"%%%$$$%%%%%%$$$#@@@@@#@@@@@@@@@ ",
"%%%%%%%%%%%%$$$#@@@@@#@@@@@@@@@ ",
"%%%%%%%%%%%%$$$#@@@@@#@@@@@@@@@ ",
"%%%%%%%%%%%$$###################"
};
