/* XPM */
static char *out[] = {
/* columns rows colors chars-per-pixel */
"32 32 9 1 ",
"  c #25131A",
". c #36253B",
"X c #373737",
"o c #39334A",
"O c #463E57",
"+ c #895A45",
"@ c #BF704D",
"# c #90919E",
"$ c #ADC1CF",
/* pixels */
"oooooooooooooooooooooooooooooooo",
"oooooooooOOOoooooooooooooooooooo",
"ooOOOOOooOOOoooooooooooooooooooo",
"ooOOOOOoo...oooooooooooooooooooo",
"ooOOOOOooooooooooooooooooooooooo",
"ooOOOOOoOOOOOOOoOOOooooOOOOooooo",
"oo.....oOOOOOOOoOOOooooOOOOooooo",
"ooooooooOOOOOOOoOOOOOOoOOOOooooo",
"oOOOOOOOOOOOOOOoOOOOOOo....oOOOo",
"oOOOOOOOOOOO      OOOOooooooOOOo",
"oOOOOOOOOOO #####$ OOOooooooOOOo",
"oOOOOOOOOOO      #$ OOOOOOOOOOOo",
"oOOOOOOOOO $ $ $ ## OOOOOOOOOOOo",
"oOOOOOOOOO $ $ $ $# OOOOOOOOOOOo",
"o....OOOOO $$$$$$$# OOOOOOOOOOOo",
"oooooOOOOOO #  ###  OOOOOO.....o",
"oooooOOOOO   #### X  OOOOOoooooo",
"oooooOOOOO $X $ XX $# OOOOoooooo",
"oooooOOOO  $X$## X $# OOOOoooooo",
"oooooOOOO + X $ XX  + OOOOoooooo",
"oooooOOOO   @ $ @@X   OOOOoooooo",
"ooooo..... XXX XXXXX OOOOOoooooo",
"oooooooooo XX + XXXX OOOOOoooooo",
"ooooooooooooooooOOOOOOOOOOoooooo",
".ooOOOOooooooooo..........oooooo",
"oOOOOOOooooooooooooooooooooOOOoo",
"oOOOOOOooooooooooooooooooooOOOoo",
"oOOOO..ooooooooooooooooooooOOOoo",
"o....ooooooooooooooooooooooOOOoo",
"ooooooooooooooooooooooooooo...oo",
"oooooooooooooooooooooooooooooooo",
"oooooooooooooooooooooooooooooooo"
};
