/* XPM */
static char *out[] = {
/* columns rows colors chars-per-pixel */
"32 32 9 1 ",
"  c #25131A",
". c #36253B",
"X c #373737",
"o c #39334A",
"O c #463E57",
"+ c #895A45",
"@ c #BF704D",
"# c #90919E",
"$ c #ADC1CF",
/* pixels */
" ...oooooooooooooooooooooooooooo",
" ...oooooooooooooooooooooooooooo",
" ...oooooooooooooooooooooooooooo",
" ...oooooooooooooooooooooooooooo",
" ...oooooooooooooooooooooooooooo",
" ...ooooooooooooooooooooOOOOOooo",
" ...ooooooooooooooooooooOOOOOooo",
" ...ooooooooooooooooooooOOOOOOoo",
" ...oooooooooo      oooo.OOOOOoo",
" ...ooooooooo $##### ooooOOOOOoo",
" ...oooooooo $#      oooo.....oo",
" ...oooooooo ## $ $ $ oooooooooo",
" ...oooooooo #$ $ $ $ oooooooooo",
" ...oooooooo #$$$$$$$ oooooooooo",
" ...oooooooo  ###  # ooooooooooo",
"     .ooooo  X ####   oooooooooo",
" ...oooooo #$ XX $  $ oooooooooo",
" ...oooooo #$ X ##$X$  ooooooooo",
" ...oooooo +  XX $ X + Ooooooooo",
" ...oooooo   ++@ $ @   Ooooooooo",
" ...oooooooo XXX  XX OOOoooooooo",
" ...ooooooo XXXX @ XX OOOOOooooo",
" ...ooooooo XXXX + XX OOOOOooooo",
" ...ooooooooooooo....OOOOOOooooo",
" ...oooooooooooooooooOOOOOOooooo",
" ...ooooooooooooooooo......ooooo",
" ...oooooooooooooooooooooooooooo",
" ...oooooooooooooooooooooooooooo",
" ...oooooooooooooooooooooooooooo",
" ...oooooooooooooooooooooooooooo",
" ...oooooooooooooooooooooooooooo",
"     .oooooooooooooooooooooooooo"
};
