/* XPM */
static char *out[] = {
/* columns rows colors chars-per-pixel */
"32 32 8 1 ",
"  c #25131A",
". c #36253B",
"X c #39334A",
"o c #463E57",
"O c #A33F14",
"+ c #D9701A",
"@ c #FFB64F",
"# c #F0E2C5",
/* pixels */
"XXXXXXXXXXXXXXXXXXXXXXXXXXXXXXXX",
"XXXXXXXXXXXXXXXXXXXXXXXXXXXXXXXX",
"XXXXXXXXXXXXXXXXXoooooooXXXXXXXX",
"XXXXXXXXXXXXXXXXXoooooooXXXXXXXX",
"XXXXXXXXXXXXXXXXXoooooooXXXXXXXX",
"XXXXXXXXoooooXXXXooooooooooXXXXX",
"XXXXXXXXoooooXXXXooooooooooXXXXX",
"XXXXXXXXooooooXXX....ooooooXXXXX",
"XXXXXXXX.oooooXXXXXXXooooooXXXXX",
"XXXXXXXXXoooooXXXXXXX......XXXXX",
"XXXXXXXXX.....XXXXXXXXXXXXXXXXXX",
"XXXXXXXXXXXXXXXXXXXXXXXXXXXXXXXX",
"XXXXXXXXXXXXXXXXX   XXXXXXXXXXXX",
"XXXXXXXXXXXXXXXX ##@ XXXXXXXXXXX",
"XXXXXXXXXXX     @##@@ XXXXXXXXXX",
"XXXXXXXXXX #@@@@@+ +@ XXXXXXXXXX",
"XXXXXXXXXX ++++++ X + XXXXXXXXXX",
"XXXXXXXXXX @O@  + X + XXXXXXXXXX",
"XXXXXXXXXX + +  +O O+ XXXXXXXXXX",
"XXXXXXXXXX  X XX +++ XXXXXXXXXXX",
"XXXXXXXXXXXXXXXXX   XXXXXXXXXXXX",
"XXXXXXXXXXXXXXXXXXXXXXXXXXXXXXXX",
"XXXXXXXXXXXXXXXXXXXXXXXXXXXXXXXX",
"XXXXXXXXXXXXXXXXXXXXXXXXXXXXXXXX",
"XXXXXXXXXXXXXXXXXXXXXXXXXXXXXXXX",
"XXXXXXXXXXXXXXXXXXXXXXXXXXXXXXXX",
"XXXXXXXXXXXXXXX.XXXXXXXXXXXXXXX.",
"XXXXXXXXXXXXXXX XXXXXXXXXXXXXXX ",
"............... ............... ",
"............... ............... ",
"............... ............... ",
"                                "
};
