/* XPM */
static char *out[] = {
/* columns rows colors chars-per-pixel */
"32 32 8 1 ",
"  c #25131A",
". c #36253B",
"X c #39334A",
"o c #463E57",
"O c #A33F14",
"+ c #D9701A",
"@ c #FFB64F",
"# c #F0E2C5",
/* pixels */
"XXXXXXXXXXXXXXXXXXXXXXXXXXX..   ",
"XXXXXXXXXXXXXXXXXXXXXXXXXXXX... ",
"XXXXXXXXXXXXXXXXXXXXXXXXXXXX... ",
"XXXXXXXXXXXXXXXXXXXXXXXXXXXX... ",
"XXXXXXXXXXXXXXXXXXXXXXXXXXXX... ",
"XXXXXXXXXXXXXXXXXXXX..XXXXXX... ",
"XXXXXXXXXXXXXXXXXXXXooXXXXXX... ",
"XXXXXXXXXXXXXXXXXXXXooXXXXXX... ",
"XXXXXXXXXXXXXXXXXXXXXXXXXXX.... ",
"XXXXXXXXXXXXXXXXXX...XXXXXXX... ",
"XXXXXXXXXXXXXXXXXXooo..XXXXX... ",
"XXXXXXXXXXXXXXXXXXoooooXXXXX... ",
"XXXXXXXXXXXX   XXXoooooXXXXX... ",
"XXXXXXXXXXX @## XXXXoooXXXXX... ",
"XXXXXXXXXX @@##@     XXXXXXX... ",
"XXXXXXXXXX @+ +@@@@@# XXXXXX... ",
"XXXXXXXXXX + X ++++++ XXXXX..   ",
"XXXXXXXXXX + X +  @O@ XXXXXX... ",
"XXXXXXXXXX +O O+  + + XXXXXX... ",
"XXXXXXXXXXX +++ XX .  XXXXXX... ",
"XXXXXXXXXXXX   XXXXooo..XXXX... ",
"XXXX.....XXXXXXXXXXoooooXXXX... ",
"XXXXoooooXXXXXXXXXXoooooXXXX... ",
"XXXXoooooXXXXXXXXXXoooooXXXX... ",
"XXXXoooooXX...XXXXXXXXXXXXXX... ",
"XXXXoooooXXoooXXXXXXXXXXXXXX... ",
"XXXXXXXXXXXoooX.XXXXXXXXXXXX... ",
"XXXXXXXXXXXXXXX XXXXXXXXXXX.... ",
"............... ............... ",
"............... ..............  ",
"............... .............   ",
"                                "
};
