/* XPM */
static char *result[] = {
/* columns rows colors chars-per-pixel */
"16 16 8 1 ",
"  c #3D4B25",
". c #4A4457",
"X c #66A93A",
"o c #6E8E42",
"O c #7BD34C",
"+ c #C8EB51",
"@ c #E9F2D5",
"# c None",
/* pixels */
"################",
"################",
"################",
"################",
"#####      #####",
"###  oO++Oo  ###",
"## O+@@+++++O ##",
"# O+@+OOOOO++O #",
"# OOXooooooXO+ #",
"# OoXXXXXOOXo+ #",
"#.OXXXXXXOOXXO.#",
"##.OXoooooXXO.##",
"###..........###",
"################",
"################",
"################"
};
