/* XPM */
static char *out[] = {
/* columns rows colors chars-per-pixel */
"32 32 9 1 ",
"  c #25131A",
". c #36253B",
"X c #373737",
"o c #39334A",
"O c #463E57",
"+ c #895A45",
"@ c #BF704D",
"# c #90919E",
"$ c #ADC1CF",
/* pixels */
" ...oooooooooooooooooooooooooooo",
" ...oooooooooooooooooooooooooooo",
" ...oooooooooooooooooooooooooooo",
" ...oooooooooooooooooooooooooooo",
" ...oooooooooooooooooooooooooooo",
" ...ooooooooooooooooooooOOOOOooo",
" ...ooooooooooooooooooooOOOOOooo",
" ...ooooooooooooooooooooOOOOOOoo",
" ...oooooooooooooooooooo.OOOOOoo",
" ...oooooooooo      oooooOOOOOoo",
" ...ooooooooo $##### oooo.....oo",
" ...oooooooo $#      ooooooooooo",
" ...oooooooo ## $ $ $ oooooooooo",
" ...oooooooo #$ $ $ $ oooooooooo",
" ...oooooooo #$$$$$$$ oooooooooo",
"     .ooooo  X###  #  oooooooooo",
" ...oooooo #$  #### $ oooooooooo",
" ...oooooo #$ XX $ X$  ooooooooo",
" ...oooooo +  X ##$X + Ooooooooo",
" ...oooooo   ++@ $ @   Ooooooooo",
" ...oooooooo XXX $ X OOOoooooooo",
" ...ooooooo XXXXX XXX OOOOOooooo",
" ...ooooooo XXXX + XX OOOOOooooo",
" ...ooooooooooooo....OOOOOOooooo",
" ...oooooooooooooooooOOOOOOooooo",
" ...ooooooooooooooooo......ooooo",
" ...oooooooooooooooooooooooooooo",
" ...oooooooooooooooooooooooooooo",
" ...oooooooooooooooooooooooooooo",
" ...oooooooooooooooooooooooooooo",
" ...oooooooooooooooooooooooooooo",
"     .oooooooooooooooooooooooooo"
};
