/* XPM */
static char *out[] = {
/* columns rows colors chars-per-pixel */
"32 32 9 1 ",
"  c #25131A",
". c #36253B",
"X c #373737",
"o c #39334A",
"O c #463E57",
"+ c #895A45",
"@ c #BF704D",
"# c #90919E",
"$ c #ADC1CF",
/* pixels */
"ooooooooooooooooooooooooooo..   ",
"oooooooooooooooooooooooooooo... ",
"oooooooooooooooooooooooooooo... ",
"oooooooooooooooooooooooooooo... ",
"oooooooooooooooooooooooooooo... ",
"oooooooooooooooooooo..oooooo... ",
"ooooooooooooooooooooOOoooooo... ",
"ooooooooooooooooooooOOoooooo... ",
"oooooooooooooo      ooooooo.... ",
"ooooooooooooo $##### ooooooo... ",
"oooooooooooo $#      ..ooooo... ",
"oooooooooooo ## $ $ $ Oooooo... ",
"oooooooooooo #$ $ $ $ Oooooo... ",
"oooooooooooo #$$$$$$$ Oooooo... ",
"oooooooooooo  ###  # ooooooo... ",
"ooooooooooo  X ####   oooooo... ",
"oooooooooo #$ XX $  $ ooooo..   ",
"oooooooooo #$ X ##$X$  ooooo... ",
"oooooooooo +  XX $ X + ooooo... ",
"oooooooooo   ++@ $ @   ooooo... ",
"oooooooooooo XXX  XX O..oooo... ",
"oooo.....oo XXXX @ XX OOoooo... ",
"ooooOOOOOoo XXXX + XX OOoooo... ",
"ooooOOOOOooooooooooOOOOOoooo... ",
"ooooOOOOOoo...oooooooooooooo... ",
"ooooOOOOOooOOOoooooooooooooo... ",
"oooooooooooOOOo.oooooooooooo... ",
"ooooooooooooooo ooooooooooo.... ",
"............... ............... ",
"............... ..............  ",
"............... .............   ",
"                                "
};
