/* XPM */
static char *out[] = {
/* columns rows colors chars-per-pixel */
"32 32 14 1 ",
"  c black",
". c gray7",
"X c #25131A",
"o c #36253B",
"O c #313B35",
"+ c #39334A",
"@ c #463E57",
"# c #44504F",
"$ c #64594F",
"% c #606E6D",
"& c #BC4C51",
"* c #9A8571",
"= c #E6A353",
"- c #CDD5D0",
/* pixels */
"+++++++++++++++++++++++++++ooXXX",
"++++++++++++++++++++++++++++oooX",
"++++++++++++++++++++++++++++oooX",
"++++++++++++++++++++++++++++oooX",
"++++++++++++++++++++++++++++oooX",
"++++++++++++++++++++oo++++++oooX",
"++++++++++++++++++++@@++++++oooX",
"++++++++++++++++++++@@++++++oooX",
"+++++++++++++++++++++++++++ooooX",
"++++++++++++XXXXXXooo+++++++oooX",
"+++++++++++X......X@@oo+++++oooX",
"+++++++++++X.#.....X@@@+++++oooX",
"++++++++++X OO%OO#..@@@+++++oooX",
"+++++++++++X-O%-O%#.@@@+++++oooX",
"+++++++++++X##%##%#.&+++++++oooX",
"+++++++++++X%%%%%#X&..++++++oooX",
"+++++++++++X-XX-XXXX+++++++ooXXX",
"++++++++++X$******$*X+++++++oooX",
"++++++++++X$*X=X***$X+++++++oooX",
"++++++++++XXXXXXXXXXXo++++++oooX",
"+++++++++++X$$X$$$*X@@oo++++oooX",
"++++ooooo++X$*X**$$*X@@@++++oooX",
"++++@@@@@+X$*XXX**$*X@@@++++oooX",
"++++@@@@@++++++++++@@@@@++++oooX",
"++++@@@@@++ooo++++++++++++++oooX",
"++++@@@@@++@@@++++++++++++++oooX",
"+++++++++++@@@+o++++++++++++oooX",
"+++++++++++++++X+++++++++++ooooX",
"oooooooooooooooXoooooooooooooooX",
"oooooooooooooooXooooooooooooooXX",
"oooooooooooooooXoooooooooooooXXX",
"XXXXXXXXXXXXXXXXXXXXXXXXXXXXXXXX"
};
