/* XPM */
static char *out[] = {
/* columns rows colors chars-per-pixel */
"32 32 14 1 ",
"  c black",
". c gray7",
"X c #25131A",
"o c #36253B",
"O c #313B35",
"+ c #39334A",
"@ c #463E57",
"# c #44504F",
"$ c #64594F",
"% c #606E6D",
"& c #BC4C51",
"* c #9A8571",
"= c #E6A353",
"- c #CDD5D0",
/* pixels */
"++++++++++++++++++++++++++++++++",
"++++++++++++++++++++++++++++++++",
"+++++++++++++++++@@@@@@@++++++++",
"+++++++++++++++++@@@@@@@++++++++",
"+++++++++++++++++@@@@@@@++++++++",
"++++++++@@@@@++++@@@@@@@@@@+++++",
"++++++++@@@@@++++@@@@@@@@@@+++++",
"++++++++@@@@@@+++oooo@@@@@@+++++",
"++++++++o@@@@@+++++++@@@@@@+++++",
"+++++++++@@@XXXXXX+++oooooo+++++",
"+++++++++ooX......X+++++++++++++",
"+++++++++++X.#.....X++++++++++++",
"++++++++++X OO%OO#..++++++++++++",
"+++++++++++X-O%-O%#.&+++++++++++",
"+++++++++++X##%##%#&..++++++++++",
"+++++++++++X%%%%%#X+++++++++++++",
"+++++++++++X-XX-XXXX++++++++++++",
"++++++++++X$******$*X+++++++++++",
"++++++++++X$*X=X***$X+++++++++++",
"++++++++++XXXXXXXXXXX+++++++++++",
"+++++++++++X$$X$$$$X++++++++++++",
"+++++++++++X$*X**$*X++++++++++++",
"+++++++++++X$XXX**$*X+++++++++++",
"++++++++++++++++++++++++++++++++",
"++++++++++++++++++++++++++++++++",
"++++++++++++++++++++++++++++++++",
"+++++++++++++++o+++++++++++++++o",
"+++++++++++++++X+++++++++++++++X",
"oooooooooooooooXoooooooooooooooX",
"oooooooooooooooXoooooooooooooooX",
"oooooooooooooooXoooooooooooooooX",
"XXXXXXXXXXXXXXXXXXXXXXXXXXXXXXXX"
};
