/* XPM */
static char *out[] = {
/* columns rows colors chars-per-pixel */
"32 32 9 1 ",
"  c #25131A",
". c #36253B",
"X c #373737",
"o c #39334A",
"O c #463E57",
"+ c #895A45",
"@ c #BF704D",
"# c #90919E",
"$ c #ADC1CF",
/* pixels */
"                                ",
" ............... ...............",
" ............... ...............",
" ............... ...............",
" ooooooooooooooo ooooooooooooooo",
".ooooooooooooooo.ooooooooooooooo",
"oooooooooooooooooooooooooooooooo",
"oooooooooooooooooooooooooooooooo",
"oooooooooooooooooooooooooooooooo",
"oooooooooooo      oooooooooooooo",
"ooooooooooo #####$ ooooooooooooo",
"ooooooooooo      #$ oooooooooooo",
"oooooooooo $ $ $ ## oooooooooooo",
"oooooooooo $ $ $ $# oooooooooooo",
"oooooooooo $$$$$$$# oooooooooooo",
"oooooooooo  #  ###X  ooooooooooo",
"oooooooooo $ ####  $# oooooooooo",
"ooooooooo  $X $ XX $# oooooooooo",
"ooooooooo + X$## X  + OOoooooooo",
"ooooooooo   @ $ @++   OOoooooooo",
"ooooooooooo X $ XXX OOOOoooooooo",
"ooooooooOO XXX XXXXX OOOOOOooooo",
"ooooooooOO XX + XXXX OOOOOOooooo",
"ooooooooOOOOOOooo....OOOOOOooooo",
"oooooooo.OOOOOoooooooOOOOOOooooo",
"oooooooooOOOOOooooooo......ooooo",
"ooooooooo.....oooooooooooooooooo",
"oooooooooooooooooooooooooooooooo",
"oooooooooooooooooooooooooooooooo",
"oooooooooooooooooooooooooooooooo",
"oooooooooooooooooooooooooooooooo",
"oooooooooooooooooooooooooooooooo"
};
