/* XPM */
static char *result[] = {
/* columns rows colors chars-per-pixel */
"32 32 10 1 ",
"  c #39334A",
". c #463E57",
"X c #36253B",
"o c #25131A",
"O c #ADC1CF",
"+ c #90919E",
"@ c #373737",
"# c #895A45",
"$ c #BF704D",
"% c white",
/* pixels */
"                                ",
"                    ...         ",
"                    ...  .....  ",
"                    XXX  .....  ",
"                         .....  ",
"     ....    ... ....... .....  ",
"     ....    ... ....... XXXXX  ",
"     .... ...... .......        ",
" ... XXXX ....oooooo........... ",
" ...      ...oO+++++o.......... ",
" ...      ..oO+oooooo.......... ",
" ...........o++oOoOoOo......... ",
" ...........o+OoOoOoOo......... ",
" ...........o+OOOOOOOo......... ",
" ...........oo+++oo+o......XXXX ",
" XXXXX......o@o++++oo......     ",
"      .....oo@@@oOo@oo.....     ",
"      ....o+Oo@o++O@Oo.....     ",
"      ....o+Oo@@oOo@Ooo....     ",
"      ....o#oo#$oOo$o#o....     ",
"      ....ooo@@@oo@@ooo....     ",
"      .....o@@@@o$o@@oXXXXX     ",
"      .....o@@@@o#o@@o          ",
"      ..........                ",
"      XXXXXXXXXX         ....  X",
"  ...                    ...... ",
"  ...                    ...... ",
"  ...                    XX.... ",
"  ...                      XXXX ",
"  XXX                           ",
"                                ",
"                                "
};
