/* XPM */
static char *out[] = {
/* columns rows colors chars-per-pixel */
"32 32 8 1 ",
"  c #25131A",
". c #36253B",
"X c #39334A",
"o c #463E57",
"O c #A33F14",
"+ c #D9701A",
"@ c #FFB64F",
"# c #F0E2C5",
/* pixels */
"                                ",
" ............... ...............",
" ............... ...............",
" ............... ...............",
" XXXXXXXXXXXXXXX XXXXXXXXXXXXXXX",
".XXXXXXXXXXXXXXX.XXXXXXXXXXXXXXX",
"XXXXXXXXXXXXXXXXXXXXXXXXXXXXXXXX",
"XXXXXXXXXXXXXXXXXXXXXXXXXXXXXXXX",
"XXXXXXXXXXXXXXXXXXXXXXXXXXXXXXXX",
"XXXXXXXXXXXXXXXXXXXXXXXXXXXXXXXX",
"XXXXXXXXXXXXXXXXXXXXXXXXXXXXXXXX",
"XXXXXXXXXXXXXXXXXXXXXXXXXXXXXXXX",
"XXXXXXXXXXXXXXXXX  XXXXXXXXXXXXX",
"XXXXXXXXXXXXXXXX @@ XXXXXXXXXXXX",
"XXXXXXXXXXXXX   #@@ XXXXXXXXXXXX",
"XXXXXXXXXXXX ##@#+@ XXXXXXXXXXXX",
"XXXXXXXXXXXX ++++ + XXXXXXXXXXXX",
"XXXXXXXXXXXX @  + + XXXXXXXXXXXX",
"XXXXXXXXXXXX +  +O+ ooooXXXXXXXX",
"XXXXXXXXXXXX  XX OO ooooXXXXXXXX",
"XXXXXXXXXXXXXXXXX  oooooXXXXXXXX",
"XXXXXXXXoooooXXXXooooooooooXXXXX",
"XXXXXXXXoooooXXXXooooooooooXXXXX",
"XXXXXXXXooooooXXX....ooooooXXXXX",
"XXXXXXXX.oooooXXXXXXXooooooXXXXX",
"XXXXXXXXXoooooXXXXXXX......XXXXX",
"XXXXXXXXX.....XXXXXXXXXXXXXXXXXX",
"XXXXXXXXXXXXXXXXXXXXXXXXXXXXXXXX",
"XXXXXXXXXXXXXXXXXXXXXXXXXXXXXXXX",
"XXXXXXXXXXXXXXXXXXXXXXXXXXXXXXXX",
"XXXXXXXXXXXXXXXXXXXXXXXXXXXXXXXX",
"XXXXXXXXXXXXXXXXXXXXXXXXXXXXXXXX"
};
