/* XPM */
static char *out[] = {
/* columns rows colors chars-per-pixel */
"32 32 9 1 ",
"  c #25131A",
". c #36253B",
"X c #373737",
"o c #39334A",
"O c #463E57",
"+ c #895A45",
"@ c #BF704D",
"# c #90919E",
"$ c #ADC1CF",
/* pixels */
"ooooooooooooooooooooooooooo..   ",
"oooooooooooooooooooooooooooo... ",
"oooooooooooooooooooooooooooo... ",
"oooooooooooooooooooooooooooo... ",
"oooooooooooooooooooooooooooo... ",
"oooooooooooooooooooo..oooooo... ",
"ooooooooooooooooooooOOoooooo... ",
"ooooooooooooooooooooOOoooooo... ",
"ooooooooooooooooooooooooooo.... ",
"oooooooooooooo      .ooooooo... ",
"ooooooooooooo $##### ..ooooo... ",
"oooooooooooo $#      OOooooo... ",
"oooooooooooo ## $ $ $ Oooooo... ",
"oooooooooooo #$ $ $ $ Oooooo... ",
"oooooooooooo #$$$$$$$ oooooo... ",
"ooooooooooo  X###  #  oooooo... ",
"oooooooooo #$  #### $ ooooo..   ",
"oooooooooo #$ XX $ X$  ooooo... ",
"oooooooooo +  X ##$X + ooooo... ",
"oooooooooo   ++@ $ @   ooooo... ",
"oooooooooooo XXX $ X O..oooo... ",
"oooo.....oo XXXXX XXX OOoooo... ",
"ooooOOOOOoo XXXX + XX OOoooo... ",
"ooooOOOOOooooooooooOOOOOoooo... ",
"ooooOOOOOoo...oooooooooooooo... ",
"ooooOOOOOooOOOoooooooooooooo... ",
"oooooooooooOOOo.oooooooooooo... ",
"ooooooooooooooo ooooooooooo.... ",
"............... ............... ",
"............... ..............  ",
"............... .............   ",
"                                "
};
