/* XPM */
static char *out[] = {
/* columns rows colors chars-per-pixel */
"32 32 11 1 ",
"  c #25131A",
". c #171A4F",
"X c #3D3347",
"o c #4A5462",
"O c #7D7071",
"+ c #1D3798",
"@ c #6D758D",
"# c #7084BB",
"$ c #2FAEFF",
"% c #9E8E88",
"& c #CFC2B0",
/* pixels */
"XXXXXXXXXXXXXXXXXXXXXXXXXXXXXXXX",
"XXXXXXXXXXXXXXXXXXXXXXXXXXXXXXXX",
"XXOO%%%%OOOOOOOOOO%%OO%%OOOO%%OO",
"XXOO%%%%OOOOOOOOOO%%OO%%OOOO%%OO",
"XX%%%%%%%%OOOOOOOO%%OO%%OOOO%%%%",
"XX%%%%%%%%OOOOOOOO%%OO%%OOOO%%%%",
"OO&&%%%%%%%%%%%%%%%%%%%%%%%%%%&&",
"OO&&%%%%%%%%%%%%%%%%%%%%%%%%%%&&",
"OO&&&&&&&&&&&&&&&&&&&&&&&&&&&&&&",
"OO&&&&&&&&&&&&&&&&&&&&&&&&&&&&&&",
"XXOO%%####%%##%%##%%##%%####%%OO",
"XXOO%%####%%##%%##%%##%%####%%OO",
"XX%%%%OO++oo++oo++oo++oo..OO%%%%",
"XX%%%%OO++oo++oo++oo++oo..OO%%%%",
"XX####..++@@++@@++@@++@@++..####",
"XX####..++@@++@@++@@++@@++..####",
"XX####..++@@++$$++$$++@@++..####",
"XX####..++@@++$$++$$++@@++..####",
"XX####..++$$++$$++$$++$$++..####",
"XX####..++$$++$$++$$++$$++..####",
"XXOOOO..++$$++$$++$$++$$++..OOOO",
"XXOOOO..++$$++$$++$$++$$++..OOOO",
"XX%%%%..++@@++$$++$$++@@++..%%%%",
"XX%%%%..++@@++$$++$$++@@++..%%%%",
"XXOOOO..++@@++@@++@@++@@++..OOOO",
"XXOOOO..++@@++@@++@@++@@++..OOOO",
"XXOOOO....oo..oo..oo..oo....OOOO",
"XXOOOO....oo..oo..oo..oo....OOOO",
"XXOOOO....oo..oo..oo..oo....OOOO",
"XXOOOO....oo..oo..oo..oo....OOOO",
"                                ",
"                                "
};
