/* XPM */
static char *out[] = {
/* columns rows colors chars-per-pixel */
"32 32 14 1 ",
"  c black",
". c gray7",
"X c #25131A",
"o c #36253B",
"O c #313B35",
"+ c #39334A",
"@ c #463E57",
"# c #44504F",
"$ c #64594F",
"% c #606E6D",
"& c #BC4C51",
"* c #9A8571",
"= c #E6A353",
"- c #CDD5D0",
/* pixels */
"Xooo++++++++++++++++++++++++++++",
"Xooo++++++++++++++++++++++++++++",
"Xooo++++++++++++++++++++++++++++",
"Xooo++++++++++++++++++++++++++++",
"Xooo++++++++++++++++++++++++++++",
"Xooo++++++++++++++++++++@@@@@+++",
"Xooo++++++++++++++++++++@@@@@+++",
"Xooo++++++++++++++++++++@@@@@@++",
"Xooo++++++++++XXXXXX++++o@@@@@++",
"Xooo+++++++++X......X++++@@@@@++",
"Xooo++++++++X.....#.X++++ooooo++",
"Xooo++++++++..#OO%OO X++++++++++",
"Xooo++++++++.#%O-%O-X+++++++++++",
"Xooo+++++++&.#%##%##X+++++++++++",
"Xooo++++++..&X#%%%%%X+++++++++++",
"XXXXXo++++++XXXX-XX-X+++++++++++",
"Xooo+++++++X*$******$X++++++++++",
"Xooo+++++++X$***X*X*$X++++++++++",
"Xooo+++++++XXXXXX=XXXX@@++++++++",
"Xooo++++++++X$$$$X$$X@@@++++++++",
"Xooo++++++++X*$**X*$X@@@++++++++",
"Xooo+++++++X*$$**X**$X@@@@@+++++",
"Xooo++++++X*$$**XXX*$X@@@@@+++++",
"Xooo+++++++++++++oooo@@@@@@+++++",
"Xooo+++++++++++++++++@@@@@@+++++",
"Xooo+++++++++++++++++oooooo+++++",
"Xooo++++++++++++++++++++++++++++",
"Xooo++++++++++++++++++++++++++++",
"Xooo++++++++++++++++++++++++++++",
"Xooo++++++++++++++++++++++++++++",
"Xooo++++++++++++++++++++++++++++",
"XXXXXo++++++++++++++++++++++++++"
};
