/* XPM */
static char *result[] = {
/* columns rows colors chars-per-pixel */
"32 32 4 1 ",
"  c #25131A",
". c #39334A",
"X c #36253B",
"o c white",
/* pixels */
"                                ",
" ........................XXXXXX ",
" .............................X ",
" .............................X ",
" .......X.....................X ",
" .......X.....................X ",
" .......X.....................X ",
" .......X..........XXXXXXXX.X.. ",
" .......X...................... ",
" .......X...................... ",
" X.XXXXXX...................... ",
" .............................. ",
" .............................. ",
" .............................. ",
" .............................. ",
" .............................. ",
" .............................. ",
" .....................X........ ",
" .....................X........ ",
" .....................X........ ",
" .....................X........ ",
" .....................X........ ",
" .....................X........ ",
" .....................XXXXXXXX. ",
" ..X.XXXXXXX................... ",
" X............................. ",
" X............................. ",
" X............................. ",
" X.....X..........X...........X ",
" X.....X..........X...........X ",
" XXXXXXX..........XXXXXXXXXXXXX ",
"                                "
};
