/* XPM */
static char *out[] = {
/* columns rows colors chars-per-pixel */
"32 32 9 1 ",
"  c #25131A",
". c #36253B",
"X c #373737",
"o c #39334A",
"O c #463E57",
"+ c #895A45",
"@ c #BF704D",
"# c #90919E",
"$ c #ADC1CF",
/* pixels */
"ooooooooooooooooooooooooooo..   ",
"oooooooooooooooooooooooooooo... ",
"oooooooooooooooooooooooooooo... ",
"oooooooooooooooooooooooooooo... ",
"oooooooooooooooooooooooooooo... ",
"oooooooooooooooooooo..oooooo... ",
"ooooooooooooooooooooOOoooooo... ",
"ooooooooooooooooooooOOoooooo... ",
"ooooooooooooooooooooooooooo.... ",
"oooooooooooo      ...ooooooo... ",
"ooooooooooo #####$ OO..ooooo... ",
"ooooooooooo      #$ OOOooooo... ",
"oooooooooo $ $ $ ## OOOooooo... ",
"oooooooooo $ $ $ $# OOOooooo... ",
"oooooooooo $$$$$$$# oooooooo... ",
"oooooooooo  #  ###X  ooooooo... ",
"oooooooooo $ ####  $# ooooo..   ",
"ooooooooo  $X $ XX $# oooooo... ",
"ooooooooo + X$## X  + oooooo... ",
"ooooooooo   @ $ @++   oooooo... ",
"ooooooooooo X $ XXX OO..oooo... ",
"oooo.....o XXX XXXXX OOOoooo... ",
"ooooOOOOOo XX + XXXX OOOoooo... ",
"ooooOOOOOooooooooooOOOOOoooo... ",
"ooooOOOOOoo...oooooooooooooo... ",
"ooooOOOOOooOOOoooooooooooooo... ",
"oooooooooooOOOo.oooooooooooo... ",
"ooooooooooooooo ooooooooooo.... ",
"............... ............... ",
"............... ..............  ",
"............... .............   ",
"                                "
};
