/* XPM */
static char *out[] = {
/* columns rows colors chars-per-pixel */
"32 32 8 1 ",
"  c #25131A",
". c #36253B",
"X c #39334A",
"o c #463E57",
"O c #A33F14",
"+ c #D9701A",
"@ c #FFB64F",
"# c #F0E2C5",
/* pixels */
"                                ",
"............... .............   ",
"............... ..............  ",
"............... ............... ",
"XXXXXXXXXXXXXXX XXXXXXXXXXX.... ",
"XXXXXXXXXXXoooX.XXXXXXXXXXXX... ",
"XXXXoooooXXoooXXXXXXXXXXXXXX... ",
"XXXXoooooXX...XXXXXXXXXXXXXX... ",
"XXXXoooooXXXXXXXXXXoooooXXXX... ",
"XXXXoooooXXXXXXXXXXoooooXXXX... ",
"XXXX.....XXXXXXXXXXoooooXXXX... ",
"XXXXXXXXXXXXXXXXXXXooo..XXXX... ",
"XXXXXXXXXXXXXXXXX  ...XXXXXX... ",
"XXXXXXXXXXXXXXXX @@ XXXXXXXX... ",
"XXXXXXXXXXXXX   #@@ XXXXXXXX... ",
"XXXXXXXXXXXX ##@#+@ XXXXXXX..   ",
"XXXXXXXXXXXX ++++ + XXXXXXXX... ",
"XXXXXXXXXXXX @  + + XXXXXXXX... ",
"XXXXXXXooooo +  +O+ XXXXXXXX... ",
"XXXXXXXooooo  XX OO XXXXXXXX... ",
"XXXXXXXoooooooXXX  oXXXXXXXX... ",
"XXXXXXXoooooooXXXX..XXXXXXXX... ",
"XXXXXXX.......XXXXXXXXXXXXXX... ",
"XXXXXXXXXXXXXXXXXXXXXXXXXXX.... ",
"XXXXoooooXX...XXXXXXXXXXXXXX... ",
"XXXXoooooXXoooXXXXXXXXXXXXXX... ",
"XXXXXXXXXXXoooX.XXXXXXXXXXXX... ",
"XXXXXXXXXXXXXXX XXXXXXXXXXX.... ",
"............... ............... ",
"............... ..............  ",
"............... .............   ",
"                                "
};
