/* XPM */
static char *out[] = {
/* columns rows colors chars-per-pixel */
"32 32 9 1 ",
"  c #25131A",
". c #36253B",
"X c #373737",
"o c #39334A",
"O c #463E57",
"+ c #895A45",
"@ c #BF704D",
"# c #90919E",
"$ c #ADC1CF",
/* pixels */
"                                ",
"............... .............   ",
"............... ..............  ",
"............... ............... ",
"ooooooooooooooo ooooooooooo.... ",
"oooooooooooOOOo.oooooooooooo... ",
"ooooOOOOOooOOOoooooooooooooo... ",
"ooooOOOOOoo...oooooooooooooo... ",
"ooooOOOOOooo      oOOOOOoooo... ",
"ooooOOOOOoo #####$ OOOOOoooo... ",
"oooo.....oo      #$ OOOOoooo... ",
"oooooooooo $ $ $ ## OO..oooo... ",
"oooooooooo $ $ $ $# ..oooooo... ",
"oooooooooo $$$$$$$# oooooooo... ",
"ooooooooooo #  ###  oooooooo... ",
"ooooooooooo  #### X ooooooo..   ",
"oooooooooo  X $ XXX  ooooooo... ",
"oooooooooo $X$## X $# oooooo... ",
"oooooooOO  $X $ XX $# oooooo... ",
"oooooooOO + @ $ @+  + oooooo... ",
"oooooooOO   XX  XXX   oooooo... ",
"oooooooOOO XX @ XXXX ooooooo... ",
"ooooooo... XX + XXXX ooooooo... ",
"ooooooooooooooooooooooooooo.... ",
"ooooOOOOOoo...oooooooooooooo... ",
"ooooOOOOOooOOOoooooooooooooo... ",
"oooooooooooOOOo.oooooooooooo... ",
"ooooooooooooooo ooooooooooo.... ",
"............... ............... ",
"............... ..............  ",
"............... .............   ",
"                                "
};
