/* XPM */
static char *out[] = {
/* columns rows colors chars-per-pixel */
"32 32 9 1 ",
"  c #25131A",
". c #36253B",
"X c #373737",
"o c #39334A",
"O c #463E57",
"+ c #895A45",
"@ c #BF704D",
"# c #90919E",
"$ c #ADC1CF",
/* pixels */
"                                ",
"............... .............   ",
"............... ..............  ",
"............... ............... ",
"ooooooooooooooo ooooooooooo.... ",
"oooooooooooOOOo.oooooooooooo... ",
"ooooOOOOOooOOOoooooooooooooo... ",
"ooooOOOOOoo...oooooooooooooo... ",
"ooooOOOOOooooooooooOOOOOoooo... ",
"ooooOOOOOooo      oOOOOOoooo... ",
"oooo.....oo #####$ OOOOOoooo... ",
"ooooooooooo      #$ OO..oooo... ",
"oooooooooo $ $ $ ## ..oooooo... ",
"oooooooooo $ $ $ $# oooooooo... ",
"oooooooooo $$$$$$$# oooooooo... ",
"ooooooooooo #  ###  ooooooo..   ",
"oooooooooo   #### X  ooooooo... ",
"oooooooooo $X $ XX $# oooooo... ",
"oooooooOO  $X$## X $# oooooo... ",
"oooooooOO + X $ XX  + oooooo... ",
"oooooooOO   @ $ @@X   oooooo... ",
"oooooooOOO XXX XXXXX ooooooo... ",
"ooooooo... XX + XXXX ooooooo... ",
"ooooooooooooooooooooooooooo.... ",
"ooooOOOOOoo...oooooooooooooo... ",
"ooooOOOOOooOOOoooooooooooooo... ",
"oooooooooooOOOo.oooooooooooo... ",
"ooooooooooooooo ooooooooooo.... ",
"............... ............... ",
"............... ..............  ",
"............... .............   ",
"                                "
};
