/* XPM */
static char *out[] = {
/* columns rows colors chars-per-pixel */
"32 32 8 1 ",
"  c #25131A",
". c #36253B",
"X c #373737",
"o c #39334A",
"O c #895A45",
"+ c #BF704D",
"@ c #90919E",
"# c #ADC1CF",
/* pixels */
"                                ",
" ............... ...............",
" ............... ...............",
" ............... ...............",
" ooooooooooooooo ooooooooooooooo",
".ooooooooooooooo.ooooooooooooooo",
"oooooooooooooooooooooooooooooooo",
"oooooooooooooooooooooooooooooooo",
"oooooooooooo      oooooooooooooo",
"ooooooooooo @@@@@# ooooooooooooo",
"ooooooooooo      @# oooooooooooo",
"oooooooooo # # # @@ oooooooooooo",
"oooooooooo # # # #@ oooooooooooo",
"oooooooooo #######@ oooooooooooo",
"ooooooooooo @  @@@  oooooooooooo",
"ooooooooooo  @@@@ X oooooooooooo",
"oooooooooo  X # XXX  ooooooooooo",
"oooooooooo #X#@@ X #@ oooooooooo",
"ooooooooo  #X # XX #@ oooooooooo",
"ooooooooo O + # +O  O oooooooooo",
"ooooooooo   XX  XXX   oooooooooo",
"oooooooooo XX + XXXX ooooooooooo",
"oooooooooo XX O XXXX ooooooooooo",
"oooooooooooooooooooooooooooooooo",
"oooooooooooooooooooooooooooooooo",
"oooooooooooooooooooooooooooooooo",
".ooooooooooooooo.ooooooooooooooo",
" ooooooooooooooo ooooooooooooooo",
" ............... ...............",
" ............... ...............",
" ............... ...............",
"                                "
};
