/* XPM */
static char *out[] = {
/* columns rows colors chars-per-pixel */
"32 32 14 1 ",
"  c black",
". c gray7",
"X c #25131A",
"o c #36253B",
"O c #313B35",
"+ c #39334A",
"@ c #463E57",
"# c #44504F",
"$ c #64594F",
"% c #606E6D",
"& c #BC4C51",
"* c #9A8571",
"= c #E6A353",
"- c #CDD5D0",
/* pixels */
"Xooo++++++++++++++++++++++++oooX",
"Xooo++++++++++++++++++++++++oooX",
"Xooo+++++@@@++++++++++++++++oooX",
"Xooo+++++@@@@@++++++++++++++oooX",
"Xooo+++++@@@@@++++@@@+++++++oooX",
"Xooo+++++oo@@@++++@@@@++++++oooX",
"Xooo+++++++ooo++++@@@@++++++oooX",
"Xoooo+++++++++++++o@@@+++++ooooX",
"Xooo++++@@@@@+XXXXXX@@@@@@++oooX",
"Xooo++++@@@@@X......X@@@@@++oooX",
"Xooo++++@@@@X.....#.Xo@@@@++oooX",
"Xooo++++oo@@..#OO%OO Xoooo++oooX",
"Xooo++++++oo.#%O-%O-X+++++++oooX",
"Xooo+++++++&.#%##%##X+++++++oooX",
"Xooo++++++..&X#%%%%%X+++++++oooX",
"XXXoo+++++++XXXX-XX-X++++++ooXXX",
"Xooo+++++++X*$******$X++++++oooX",
"Xooo+++++++X$***X*X*$X++++++oooX",
"Xooo+++++@@XXXXXX=XXXX++++++oooX",
"Xooo+++++@@@X$$$$X$$X+++++++oooX",
"Xooo+++++@@@X*$**X*$X+++++++oooX",
"Xooo+++++ooX*$$**X**$X++++++oooX",
"Xooo++++++X*$$**XXX*$X++++++oooX",
"Xoooo+++++++++++++o@@@+++++ooooX",
"Xooo++++++++++++++++@@@@++++oooX",
"Xooo++++++++++++++++++++++++oooX",
"Xooo++++++++++++o+++++++++++oooX",
"Xoooo+++++++++++X++++++++++ooooX",
"XoooooooooooooooXooooooooooooooX",
"XXooooooooooooooXoooooooooooooXX",
"XXXoooooooooooooXooooooooooooXXX",
"XXXXXXXXXXXXXXXXXXXXXXXXXXXXXXXX"
};
