/* XPM */
static char *out[] = {
/* columns rows colors chars-per-pixel */
"32 32 9 1 ",
"  c #25131A",
". c #36253B",
"X c #373737",
"o c #39334A",
"O c #463E57",
"+ c #895A45",
"@ c #BF704D",
"# c #90919E",
"$ c #ADC1CF",
/* pixels */
"oooooooooooooooooooooooooooooooo",
"oooooooooOOOoooooooooooooooooooo",
"ooOOOOOooOOOoooooooooooooooooooo",
"ooOOOOOoo...oooooooooooooooooooo",
"ooOOOOOooooooooooooooooooooooooo",
"ooOOOOOoOOOOOOOoOOOooooOOOOooooo",
"oo.....oOOOOOOOoOOOooooOOOOooooo",
"ooooooooOOOOOOOoOOOOOOoOOOOooooo",
"oOOOOOOOOOOO      OOOOo....oOOOo",
"oOOOOOOOOOO #####$ OOOooooooOOOo",
"oOOOOOOOOOO      #$ OOooooooOOOo",
"oOOOOOOOOO $ $ $ ## OOOOOOOOOOOo",
"oOOOOOOOOO $ $ $ $# OOOOOOOOOOOo",
"oOOOOOOOOO $$$$$$$# OOOOOOOOOOOo",
"o....OOOOOO #  ###  OOOOOOOOOOOo",
"oooooOOOOOO  #### X OOOOOO.....o",
"oooooOOOOO  X $ XXX  OOOOOoooooo",
"oooooOOOOO $X$## X $# OOOOoooooo",
"oooooOOOO  $X $ XX $# OOOOoooooo",
"oooooOOOO + @ $ @+  + OOOOoooooo",
"oooooOOOO   XX  XXX   OOOOoooooo",
"ooooo..... XX @ XXXX OOOOOoooooo",
"oooooooooo XX + XXXX OOOOOoooooo",
"ooooooooooooooooOOOOOOOOOOoooooo",
".ooOOOOooooooooo..........oooooo",
"oOOOOOOooooooooooooooooooooOOOoo",
"oOOOOOOooooooooooooooooooooOOOoo",
"oOOOO..ooooooooooooooooooooOOOoo",
"o....ooooooooooooooooooooooOOOoo",
"ooooooooooooooooooooooooooo...oo",
"oooooooooooooooooooooooooooooooo",
"oooooooooooooooooooooooooooooooo"
};
