/* XPM */
static char *out[] = {
/* columns rows colors chars-per-pixel */
"32 32 8 1 ",
"  c #25131A",
". c #36253B",
"X c #373737",
"o c #39334A",
"O c #895A45",
"+ c #BF704D",
"@ c #90919E",
"# c #ADC1CF",
/* pixels */
" ...oooooooooooooooooooooooo... ",
" ...oooooooooooooooooooooooo... ",
" ...oooooooooooooooooooooooo... ",
" ...oooooooooooooooooooooooo... ",
" ...oooooooooooooooooooooooo... ",
" ...oooooooooooooooooooooooo... ",
" ...oooooooooooooooooooooooo... ",
" ...oooooooooooooooooooooooo... ",
" ...oooooooo      oooooooooo... ",
" ...ooooooo @@@@@# ooooooooo... ",
" ...ooooooo      @# oooooooo... ",
" ...oooooo # # # @@ oooooooo... ",
" ...oooooo # # # #@ oooooooo... ",
" ...oooooo #######@ oooooooo... ",
" ...ooooooo @  @@@  oooooooo... ",
"     .oooo   @@@@ X  ooooo.     ",
" ...oooooo #  # XX #@ oooooo... ",
" ...ooooo  #X#@@ X #@ oooooo... ",
" ...ooooo O X # XX  O oooooo... ",
" ...ooooo   + # +OO   oooooo... ",
" ...ooooooo XX  XXX oooooooo... ",
" ...oooooo XX + XXXX ooooooo... ",
" ...oooooo XX O XXXX ooooooo... ",
" ...oooooooooooooooooooooooo... ",
" ...oooooooooooooooooooooooo... ",
" ...oooooooooooooooooooooooo... ",
" ...oooooooooooooooooooooooo... ",
" ...oooooooooooooooooooooooo... ",
" ...oooooooooooooooooooooooo... ",
" ...oooooooooooooooooooooooo... ",
" ...oooooooooooooooooooooooo... ",
"     .oooooooooooooooooooo.     "
};
