/* XPM */
static char *out[] = {
/* columns rows colors chars-per-pixel */
"32 32 9 1 ",
"  c #25131A",
". c #36253B",
"X c #373737",
"o c #39334A",
"O c #463E57",
"+ c #895A45",
"@ c #BF704D",
"# c #90919E",
"$ c #ADC1CF",
/* pixels */
"                                ",
"............... .............   ",
"............... ..............  ",
"............... ............... ",
"ooooooooooooooo ooooooooooo.... ",
"oooooooooooOOOo.oooooooooooo... ",
"ooooOOOOOooOOOoooooooooooooo... ",
"ooooOOOOOoo...oooooooooooooo... ",
"ooooOOOOOooooo      OOOOoooo... ",
"ooooOOOOOoooo $##### OOOoooo... ",
"oooo.....ooo $#      OOOoooo... ",
"oooooooooooo ## $ $ $ ..oooo... ",
"oooooooooooo #$ $ $ $ oooooo... ",
"oooooooooooo #$$$$$$$ oooooo... ",
"oooooooooooo  ###  # ooooooo... ",
"oooooooooooo X ####  oooooo..   ",
"ooooooooooo  XXX $ X  oooooo... ",
"oooooooooo #$ X ##$X$ oooooo... ",
"oooooooOOO #$ XX $ X$  ooooo... ",
"oooooooOOO +  +@ $ @ + ooooo... ",
"oooooooOOO   XXX  XX   ooooo... ",
"oooooooOOOO XXXX @ XX oooooo... ",
"ooooooo.... XXXX + XX oooooo... ",
"ooooooooooooooooooooooooooo.... ",
"ooooOOOOOoo...oooooooooooooo... ",
"ooooOOOOOooOOOoooooooooooooo... ",
"oooooooooooOOOo.oooooooooooo... ",
"ooooooooooooooo ooooooooooo.... ",
"............... ............... ",
"............... ..............  ",
"............... .............   ",
"                                "
};
