/* XPM */
static char *out[] = {
/* columns rows colors chars-per-pixel */
"32 32 9 1 ",
"  c #25131A",
". c #36253B",
"X c #373737",
"o c #39334A",
"O c #463E57",
"+ c #895A45",
"@ c #BF704D",
"# c #90919E",
"$ c #ADC1CF",
/* pixels */
"                                ",
"............... .............   ",
"............... ..............  ",
"............... ............... ",
"ooooooooooooooo ooooooooooo.... ",
"oooooooooooOOOo.oooooooooooo... ",
"ooooOOOOOooOOOoooooooooooooo... ",
"ooooOOOOOoo...oooooooooooooo... ",
"ooooOOOOOooooooooooOOOOOoooo... ",
"ooooOOOOOooooo      OOOOoooo... ",
"oooo.....oooo $##### OOOoooo... ",
"oooooooooooo $#      O..oooo... ",
"oooooooooooo ## $ $ $ oooooo... ",
"oooooooooooo #$ $ $ $ oooooo... ",
"oooooooooooo #$$$$$$$ oooooo... ",
"ooooooooooo  X###  #  ooooo..   ",
"oooooooooo #$  #### $ oooooo... ",
"oooooooooo #$ XX $ X$  ooooo... ",
"oooooooOOO +  X ##$X + ooooo... ",
"oooooooOOO   ++@ $ @   ooooo... ",
"oooooooOOOOO XXX $ X ooooooo... ",
"oooooooOOOO XXXXX XXX oooooo... ",
"ooooooo.... XXXX + XX oooooo... ",
"ooooooooooooooooooooooooooo.... ",
"ooooOOOOOoo...oooooooooooooo... ",
"ooooOOOOOooOOOoooooooooooooo... ",
"oooooooooooOOOo.oooooooooooo... ",
"ooooooooooooooo ooooooooooo.... ",
"............... ............... ",
"............... ..............  ",
"............... .............   ",
"                                "
};
