/* XPM */
static char *out[] = {
/* columns rows colors chars-per-pixel */
"32 32 9 1 ",
"  c #25131A",
". c #36253B",
"X c #373737",
"o c #39334A",
"O c #463E57",
"+ c #895A45",
"@ c #BF704D",
"# c #90919E",
"$ c #ADC1CF",
/* pixels */
"                                ",
"   ............. ...............",
"  .............. ...............",
" ............... ...............",
" ....ooooooooooo ooooooooooooooo",
" ...oooooooooooo.oOOOooooooooooo",
" ...ooooooooooooooOOOooOOOOOoooo",
" ...oooooooooooooo...ooOOOOOoooo",
" ...ooooOOOOOooooooooooOOOOOoooo",
" ...ooooOOOOOo      oooOOOOOoooo",
" ...ooooOOOOO $##### oo.....oooo",
" ...oooo..OO $#      ooooooooooo",
" ...oooooo.. ## $ $ $ oooooooooo",
" ...oooooooo #$ $ $ $ oooooooooo",
" ...oooooooo #$$$$$$$ oooooooooo",
"   ..oooooo  X###  #  oooooooooo",
" ...oooooo #$  #### $ oooooooooo",
" ...oooooo #$ XX $ X$  ooooooooo",
" ...oooooO +  X ##$X + ooooooooo",
" ...oooooO   ++@ $ @   ooooooooo",
" ...oooooOOO XXX $ X ooooooooooo",
" ...ooooo.. XXXXX XXX oooooooooo",
" ...ooooooo XXXX + XX oooooooooo",
" ....ooooooooooooooooooooooooooo",
" ...ooooooOOoooooooooooooooooooo",
" ...ooooooOOoooooooooooooooooooo",
" ...oooooo..oooooooooooooooooooo",
" ...oooooooooooooooooooooooooooo",
" ...oooooooooooooooooooooooooooo",
" ...oooooooooooooooooooooooooooo",
" ...oooooooooooooooooooooooooooo",
"   ..ooooooooooooooooooooooooooo"
};
