/* XPM */
static char *out[] = {
/* columns rows colors chars-per-pixel */
"32 32 9 1 ",
"  c #25131A",
". c #36253B",
"X c #373737",
"o c #39334A",
"O c #463E57",
"+ c #895A45",
"@ c #BF704D",
"# c #90919E",
"$ c #ADC1CF",
/* pixels */
"                                ",
"   ............. ...............",
"  .............. ...............",
" ............... ...............",
" ....ooooooooooo ooooooooooooooo",
" ...oooooooooooo.oOOOooooooooooo",
" ...ooooooooooooooOOOooOOOOOoooo",
" ...oooooooooooooo...ooOOOOOoooo",
" ...ooooOOOOOo      oooOOOOOoooo",
" ...ooooOOOOO $##### ooOOOOOoooo",
" ...ooooOOOO $#      oo.....oooo",
" ...oooo..OO ## $ $ $ oooooooooo",
" ...oooooo.. #$ $ $ $ oooooooooo",
" ...oooooooo #$$$$$$$ oooooooooo",
" ...oooooooo  ###  # ooooooooooo",
"   ..ooooooo X ####  ooooooooooo",
" ...ooooooo  XXX $ X  oooooooooo",
" ...oooooo #$ X ##$X$ oooooooooo",
" ...oooooO #$ XX $ X$  ooooooooo",
" ...oooooO +  +@ $ @ + ooooooooo",
" ...oooooO   XXX  XX   ooooooooo",
" ...ooooo.. XXXX @ XX oooooooooo",
" ...ooooooo XXXX + XX oooooooooo",
" ....ooooooooooooooooooooooooooo",
" ...ooooooOOoooooooooooooooooooo",
" ...ooooooOOoooooooooooooooooooo",
" ...oooooo..oooooooooooooooooooo",
" ...oooooooooooooooooooooooooooo",
" ...oooooooooooooooooooooooooooo",
" ...oooooooooooooooooooooooooooo",
" ...oooooooooooooooooooooooooooo",
"   ..ooooooooooooooooooooooooooo"
};
