/* XPM */
static char *out[] = {
/* columns rows colors chars-per-pixel */
"32 32 9 1 ",
"  c #25131A",
". c #36253B",
"X c #373737",
"o c #39334A",
"O c #463E57",
"+ c #895A45",
"@ c #BF704D",
"# c #90919E",
"$ c #ADC1CF",
/* pixels */
" ...oooooooooooooooooooooooooooo",
" ...oooooooooooooooooooooooooooo",
" ...oooooooooooooooooooooooooooo",
" ...oooooooooooooooooooooooooooo",
" ...oooooooooooooooooooooooooooo",
" ...ooooooooooooooooooooOOOOOooo",
" ...ooooooooooooooooooooOOOOOooo",
" ...ooooooooooooooooooooOOOOOOoo",
" ...oooooooo      oooooo.OOOOOoo",
" ...ooooooo #####$ ooooooOOOOOoo",
" ...ooooooo      #$ ooooo.....oo",
" ...oooooo $ $ $ ## oooooooooooo",
" ...oooooo $ $ $ $# oooooooooooo",
" ...oooooo $$$$$$$# oooooooooooo",
" ...ooooooo #  ###  oooooooooooo",
"     .oooo   #### X  ooooooooooo",
" ...oooooo $  $ XX $# oooooooooo",
" ...ooooo  $X$## X $# oooooooooo",
" ...ooooo + X $ XX  + OOoooooooo",
" ...ooooo   @ $ @++   OOoooooooo",
" ...ooooooo XX  XXX OOOOoooooooo",
" ...oooooo XX @ XXXX OOOOOOooooo",
" ...oooooo XX + XXXX OOOOOOooooo",
" ...ooooooooooooo....OOOOOOooooo",
" ...oooooooooooooooooOOOOOOooooo",
" ...ooooooooooooooooo......ooooo",
" ...oooooooooooooooooooooooooooo",
" ...oooooooooooooooooooooooooooo",
" ...oooooooooooooooooooooooooooo",
" ...oooooooooooooooooooooooooooo",
" ...oooooooooooooooooooooooooooo",
"     .oooooooooooooooooooooooooo"
};
