/* XPM */
static char *out[] = {
/* columns rows colors chars-per-pixel */
"32 32 9 1 ",
"  c #25131A",
". c #36253B",
"X c #373737",
"o c #39334A",
"O c #463E57",
"+ c #895A45",
"@ c #BF704D",
"# c #90919E",
"$ c #ADC1CF",
/* pixels */
" ...oooooooooooooooooooooooooooo",
" ...oooooooooooooooooooooooooooo",
" ...oooooooooooooooooooooooooooo",
" ...oooooooooooooooooooooooooooo",
" ...oooooooooooooooooooooooooooo",
" ...ooooooooooooooooooooOOOOOooo",
" ...ooooooooooooooooooooOOOOOooo",
" ...ooooooooooooooooooooOOOOOOoo",
" ...oooooooooooooooooooo.OOOOOoo",
" ...oooooooo      oooooooOOOOOoo",
" ...ooooooo #####$ oooooo.....oo",
" ...ooooooo      #$ oooooooooooo",
" ...oooooo $ $ $ ## oooooooooooo",
" ...oooooo $ $ $ $# oooooooooooo",
" ...oooooo $$$$$$$# oooooooooooo",
"     .oooo  #  ###X  ooooooooooo",
" ...oooooo $ ####  $# oooooooooo",
" ...ooooo  $X $ XX $# oooooooooo",
" ...ooooo + X$## X  + OOoooooooo",
" ...ooooo   @ $ @++   OOoooooooo",
" ...ooooooo X $ XXX OOOOoooooooo",
" ...oooooo XXX XXXXX OOOOOOooooo",
" ...oooooo XX + XXXX OOOOOOooooo",
" ...ooooooooooooo....OOOOOOooooo",
" ...oooooooooooooooooOOOOOOooooo",
" ...ooooooooooooooooo......ooooo",
" ...oooooooooooooooooooooooooooo",
" ...oooooooooooooooooooooooooooo",
" ...oooooooooooooooooooooooooooo",
" ...oooooooooooooooooooooooooooo",
" ...oooooooooooooooooooooooooooo",
"     .oooooooooooooooooooooooooo"
};
