/* XPM */
static char *out[] = {
/* columns rows colors chars-per-pixel */
"32 32 9 1 ",
"  c #25131A",
". c #36253B",
"X c #373737",
"o c #39334A",
"O c #463E57",
"+ c #895A45",
"@ c #BF704D",
"# c #90919E",
"$ c #ADC1CF",
/* pixels */
"   ..ooooooooooooooooooooooooooo",
" ...oooooooooooooooooooooooooooo",
" ...oooooooooooooooooooooooooooo",
" ...oooooooooooooooooooooooooooo",
" ...oooooooooooooooooooooooooooo",
" ...oooooo..oooooooooooooooooooo",
" ...ooooooOOoooooooooooooooooooo",
" ...ooooooOOoooooooooooooooooooo",
" ....ooooooooo      oooooooooooo",
" ...ooooooo.. $##### ooooooooooo",
" ...ooooo..O $#      ooooooooooo",
" ...oooooOOO ## $ $ $ oooooooooo",
" ...oooooOOO #$ $ $ $ oooooooooo",
" ...oooooOOO #$$$$$$$ oooooooooo",
" ...oooooooo  ###  # ooooooooooo",
" ...ooooooo  X ####   oooooooooo",
"   ..ooooo #$ XX $  $ oooooooooo",
" ...oooooo #$ X ##$X$  ooooooooo",
" ...oooooo +  XX $ X + ooooooooo",
" ...oooooo   ++@ $ @   ooooooooo",
" ...oooo..OO XXX  XX ooooooooooo",
" ...ooooOOO XXXX @ XX o.....oooo",
" ...ooooOOO XXXX + XX oOOOOOoooo",
" ...ooooOOOOOooooooooooOOOOOoooo",
" ...oooooooooooooo...ooOOOOOoooo",
" ...ooooooooooooooOOOooOOOOOoooo",
" ...oooooooooooo.oOOOooooooooooo",
" ....ooooooooooo ooooooooooooooo",
" ............... ...............",
"  .............. ...............",
"   ............. ...............",
"                                "
};
