/* XPM */
static char *out[] = {
/* columns rows colors chars-per-pixel */
"32 32 13 1 ",
"  c black",
". c gray7",
"X c #25131A",
"o c #36253B",
"O c #313B35",
"+ c #39334A",
"@ c #44504F",
"# c #64594F",
"$ c #606E6D",
"% c #BC4C51",
"& c #9A8571",
"* c #E6A353",
"= c #CDD5D0",
/* pixels */
"XXXXXXXXXXXXXXXXXXXXXXXXXXXXXXXX",
"X++++++++++++++++++++++++ooooooX",
"X+++++++++++++++++++++++++++++oX",
"X+++++++++++++++++++++++++++++oX",
"X+++++++o+++++++++++++++++++++oX",
"X+++++++o+++++++++++++++++++++oX",
"X+++++++o+++++++++++++++++++++oX",
"X+++++++o++++++++++oooooooo+o++X",
"X+++++++o+++XXXXXX+++++++++++++X",
"X+++++++o++X......X++++++++++++X",
"Xo+oooooo++X.@.....X+++++++++++X",
"X+++++++++X OO$OO@..+++++++++++X",
"X++++++++++X=O$=O$@.+++++++++++X",
"X++++++++++X@@$@@$@.%++++++++++X",
"X++++++++++X$$$$$@X%..+++++++++X",
"X++++++++++X=XX=XXX++++++++++++X",
"X++++++++++X&&&&&&#X+++++++++++X",
"X+++++++++X#&X*X&&&&X+o++++++++X",
"X+++++++++X#XXXXXXX#X+o++++++++X",
"X+++++++++XX##X####XX+o++++++++X",
"X++++++++++X#&X&&#&X++o++++++++X",
"X++++++++++X#&X&&##&X+o++++++++X",
"X+++++++++X#&XXX&&#&X+o++++++++X",
"X+++++++++++++++++++++oooooooo+X",
"X++o+ooooooo+++++++++++++++++++X",
"Xo+++++++++++++++++++++++++++++X",
"Xo+++++++++++++++++++++++++++++X",
"Xo+++++++++++++++++++++++++++++X",
"Xo+++++o++++++++++o+++++++++++oX",
"Xo+++++o++++++++++o+++++++++++oX",
"Xooooooo++++++++++oooooooooooooX",
"XXXXXXXXXXXXXXXXXXXXXXXXXXXXXXXX"
};
