/* XPM */
static char *result[] = {
/* columns rows colors chars-per-pixel */
"32 32 6 1 ",
"  c #25131A",
". c #3D3347",
"X c #7D7071",
"o c #9E8E88",
"O c #CFC2B0",
"+ c white",
/* pixels */
"                         .XXooo.",
"                         .XXooo.",
"                         .ooooO.",
"                         .ooooO.",
"                         .ooooO.",
"                         .ooooO.",
"                         .ooooO.",
"                         .ooooO.",
"                         .XXooO.",
"                         .XXooO.",
"                         .XXooO.",
"                         .XXooO.",
"                         .XXoOO.",
"                         .XXooO.",
"                         .XXXoo.",
"                          ......",
"                         .XXooX.",
"                         .XXOoo.",
"                         .ooOoO.",
"                         .ooooO.",
"                         .ooooO.",
"                         .ooooO.",
"                         .ooooO.",
"                         .ooooO.",
"                         .XXooO.",
"                         .XXooO.",
"                         .XXooO.",
"                         .XXooO.",
"                         .XXoOO.",
"                         .XXooO.",
"                         .XXXXX.",
"                          ......"
};
