/* XPM */
static char *out[] = {
/* columns rows colors chars-per-pixel */
"32 32 7 1 ",
"  c #25131A",
". c #36253B",
"X c #39334A",
"o c #A33F14",
"O c #D9701A",
"+ c #FFB64F",
"@ c #F0E2C5",
/* pixels */
" ...XXXXXXXXXXXXXXXXXXXXXXXX... ",
" ...XXXXXXXXXXXXXXXXXXXXXXXX... ",
" ...XXXXXXXXXXXXXXXXXXXXXXXX... ",
" ...XXXXXXXXXXXXXXXXXXXXXXXX... ",
" ...XXXXXXXXXXXXXXXXXXXXXXXX... ",
" ...XXXXXXXXXXXXXXXXXXXXXXXX... ",
" ...XXXXXXXXXXXXXXXXXXXXXXXX... ",
" ...XXXXXXXXXXXXXXXXXXXXXXXX... ",
" ...XXXXXXXXXXXXXXXXXXXXXXXX... ",
" ...XXXXXXXXXXXXXXXXXXXXXXXX... ",
" ...XXXXXXXXXXXXXXXXXXXXXXXX... ",
" ...XXXXXXXXXXXXXXXXXXXXXXXX... ",
" ...XXXXXXXX   XXXXXXXXXXXXX... ",
" ...XXXXXXX +@@ XXXXXXXXXXXX... ",
" ...XXXXXX ++@@+     XXXXXXX... ",
"     .XXXX +O O+++++@ XXXX.     ",
" ...XXXXXX O X OOOOOO XXXXXX... ",
" ...XXXXXX O X O  +o+ XXXXXX... ",
" ...XXXXXX Oo oO  O O XXXXXX... ",
" ...XXXXXXX OOO XX X  XXXXXX... ",
" ...XXXXXXXX   XXXXXXXXXXXXX... ",
" ...XXXXXXXXXXXXXXXXXXXXXXXX... ",
" ...XXXXXXXXXXXXXXXXXXXXXXXX... ",
" ...XXXXXXXXXXXXXXXXXXXXXXXX... ",
" ...XXXXXXXXXXXXXXXXXXXXXXXX... ",
" ...XXXXXXXXXXXXXXXXXXXXXXXX... ",
" ...XXXXXXXXXXXXXXXXXXXXXXXX... ",
" ...XXXXXXXXXXXXXXXXXXXXXXXX... ",
" ...XXXXXXXXXXXXXXXXXXXXXXXX... ",
" ...XXXXXXXXXXXXXXXXXXXXXXXX... ",
" ...XXXXXXXXXXXXXXXXXXXXXXXX... ",
"     .XXXXXXXXXXXXXXXXXXXX.     "
};
