/* XPM */
static char *out[] = {
/* columns rows colors chars-per-pixel */
"32 32 6 1 ",
"  c #25131A",
". c #36253B",
"X c #39334A",
"o c #A33F14",
"O c #D9701A",
"+ c #FFB64F",
/* pixels */
" ...XXXXXXXXXXXXXXXXXXXXXXXX... ",
" ...XXXXXXXXXXXXXXXXXXXXXXXX... ",
" ...XXXXXXXXXXXXXXXXXXXXXXXX... ",
" ...XXXXXXXXXXXXXXXXXXXXXXXX... ",
" ...XXXXXXXXXXXXXXXXXXXXXXXX... ",
" ...XXXXXXXXXXXXXXXXXXXXXXXX... ",
" ...XXXXXXXXXXXXXXXXXXXXXXXX... ",
" ...XXXXXXXXXXXXXXXXXXXXXXXX... ",
" ...XXXXXXXXXXXXXXXXXXXXXXXX... ",
" ...XXXXXXXXXXXXXXXXXXXXXXXX... ",
" ...XXXXXXXXXXXXXXXXXXXXXXXX... ",
" ...XXXXXXXXXXXXXXXXXXXXXXXX... ",
" ...XXXXXXXXXXX  XXXXXXXXXXX... ",
" ...XXXXXXXXXX oo XXXXXXXXXX... ",
" ...XXXXXXXXXX oo XXXXXXXXXX... ",
"     .XXXXXXXX OO XXXXXXXX.     ",
" ...XXXXXXXXXX OO XXXXXXXXXX... ",
" ...XXXXXXXXXX ++ XXXXXXXXXX... ",
" ...XXXXXXXXXX oo XXXXXXXXXX... ",
" ...XXXXXXXXXX oo XXXXXXXXXX... ",
" ...XXXXXXXXXXX  XXXXXXXXXXX... ",
" ...XXXXXXXXXXXXXXXXXXXXXXXX... ",
" ...XXXXXXXXXXXXXXXXXXXXXXXX... ",
" ...XXXXXXXXXXXXXXXXXXXXXXXX... ",
" ...XXXXXXXXXXXXXXXXXXXXXXXX... ",
" ...XXXXXXXXXXXXXXXXXXXXXXXX... ",
" ...XXXXXXXXXXXXXXXXXXXXXXXX... ",
" ...XXXXXXXXXXXXXXXXXXXXXXXX... ",
" ...XXXXXXXXXXXXXXXXXXXXXXXX... ",
" ...XXXXXXXXXXXXXXXXXXXXXXXX... ",
" ...XXXXXXXXXXXXXXXXXXXXXXXX... ",
"     .XXXXXXXXXXXXXXXXXXXX.     "
};
