/* XPM */
static char *out[] = {
/* columns rows colors chars-per-pixel */
"32 32 9 1 ",
"  c #25131A",
". c #36253B",
"X c #373737",
"o c #39334A",
"O c #463E57",
"+ c #895A45",
"@ c #BF704D",
"# c #90919E",
"$ c #ADC1CF",
/* pixels */
"                                ",
"   ............. ............   ",
"  .............. .............  ",
" ............... .............. ",
" ....ooooooooooo oooooooooo.... ",
" ...oooooooooooo.ooooooooooo... ",
" ...oooooooooooooooooooooooo... ",
" ...ooooooooooooooooOOOOoooo... ",
" ...ooooOOOO      ooOOOOOOoo... ",
" ...ooooOOO #####$ oOOOOOOoo... ",
" ...ooooOOO      #$ ..OOOOoo... ",
" ...oooo.. $ $ $ ## oo....oo... ",
" ...oooooo $ $ $ $# oooooooo... ",
" ...oooooo $$$$$$$# oooooooo... ",
" ...ooooooo #  ###  oooooooo... ",
"   ..oooooo  #### X ooooooo..   ",
" ...oooooo  X $ XXX  ooooooo... ",
" ...oooooo $X$## X $# oooooo... ",
" ...ooooo  $X $ XX $# oooooo... ",
" ...ooooo + @ $ @+  + oooooo... ",
" ...ooooo   XX  XXX   oooooo... ",
" ...ooooo. XX @ XXXX Ooooooo... ",
" ...oooooo XX + XXXX Ooooooo... ",
" ....ooooooooooooo.OOOooooo.... ",
" ...ooooooOOooooooo...oooooo... ",
" ...ooooooOOoooooooooooooooo... ",
" ...oooooo..ooooooooooOOOOoo... ",
" ...ooooooooooooooooooOOOOoo... ",
" ...ooooooooooooooooooOOOOoo... ",
" ...oooooooooooooooooo....oo... ",
" ...oooooooooooooooooooooooo... ",
"   ..oooooooooooooooooooooo..   "
};
