/* XPM */
static char *result[] = {
/* columns rows colors chars-per-pixel */
"32 32 7 1 ",
"  c #25131A",
". c #36253B",
"X c #3D3347",
"o c #595059",
"O c #7D7071",
"+ c #9E8E88",
"@ c #CFC2B0",
/* pixels */
"XXXXXXXXXXXXXXXXXXXXXXXXXXXXXXXX",
"X@@@@@@@@@@@@@@@X@@@@@@@@@@@@@@@",
"X+++++++++++++++X+++++++++++++++",
"o++O++++++++++OOo++OOOOO++++++++",
"o++O++++++++++OOo++OOOOO+OO+++++",
" ooooooooooooooo ooooooooooooooo",
" ooooooooooooooo ooooooooooooooo",
" ........ ...... ....... .......",
" ........ ...... ....... .......",
" ........ ...... ....... .......",
"                                ",
" ... ....... ..   .... ...... . ",
" ... ....... ..   .... ...... . ",
"                                ",
"                                ",
"                                ",
"                                ",
"                                ",
"                                ",
"                                ",
"                                ",
"                                ",
"                                ",
"                                ",
"                                ",
"                                ",
"                                ",
"                                ",
"                                ",
"                                ",
"                                ",
"                                "
};
