/* XPM */
static char *result[] = {
/* columns rows colors chars-per-pixel */
"32 32 7 1 ",
"  c #25131A",
". c #3D3347",
"X c #9E8E88",
"o c #CFC2B0",
"O c #595059",
"+ c #36253B",
"@ c white",
/* pixels */
"                         .......",
"                         .XXooo.",
"                         .XXXXX.",
"                         .XXXXXO",
"                         +OXXXXO",
"                         +OOOOO ",
"                         +OOOOO ",
"                          +++++ ",
"                          +++++ ",
"                          +++++ ",
"                                ",
"                                ",
"                                ",
"                                ",
"                                ",
"                                ",
"                                ",
"                                ",
"                                ",
"                                ",
"                                ",
"                                ",
"                                ",
"                                ",
"                                ",
"                                ",
"                                ",
"                                ",
"                                ",
"                                ",
"                                ",
"                                "
};
