/* XPM */
static char *result[] = {
/* columns rows colors chars-per-pixel */
"32 32 5 1 ",
"  c #25131A",
". c #3D3347",
"X c #7D7071",
"o c #9E8E88",
"O c #CFC2B0",
/* pixels */
"......                          ",
".XXXXX.                         ",
".OooXX.                         ",
".OOoXX.                         ",
".OooXX.                         ",
".OooXX.                         ",
".OooXX.                         ",
".OooXX.                         ",
".Ooooo.                         ",
".Ooooo.                         ",
".Ooooo.                         ",
".Ooooo.                         ",
".Ooooo.                         ",
".OoOoo.                         ",
".ooOXX.                         ",
".XooXX.                         ",
"......                          ",
".ooXXX.                         ",
".OooXX.                         ",
".OOoXX.                         ",
".OooXX.                         ",
".OooXX.                         ",
".OooXX.                         ",
".OooXX.                         ",
".Ooooo.                         ",
".Ooooo.                         ",
".Ooooo.                         ",
".Ooooo.                         ",
".Ooooo.                         ",
".Ooooo.                         ",
".oooXX.                         ",
".oooXX.                         "
};
