/* XPM */
static char *result[] = {
/* columns rows colors chars-per-pixel */
"32 32 6 1 ",
"  c #25131A",
". c #36253B",
"X c #3D3347",
"o c #595059",
"O c #9E8E88",
"+ c #CFC2B0",
/* pixels */
"XXXXXXX                         ",
"X+++OOX                         ",
"XOOOOOX                         ",
"oOOOOOX                         ",
"oOOOOo.                         ",
" ooooo.                         ",
" ooooo.                         ",
" .....                          ",
" .....                          ",
" .....                          ",
"                                ",
"                                ",
"                                ",
"                                ",
"                                ",
"                                ",
"                                ",
"                                ",
"                                ",
"                                ",
"                                ",
"                                ",
"                                ",
"                                ",
"                                ",
"                                ",
"                                ",
"                                ",
"                                ",
"                                ",
"                                ",
"                                "
};
