/* XPM */
static char *result[] = {
/* columns rows colors chars-per-pixel */
"32 32 6 1 ",
"  c #25131A",
". c #3D3347",
"X c #9E8E88",
"o c #7D7071",
"O c #CFC2B0",
"+ c white",
/* pixels */
"                                ",
"                                ",
"                                ",
"                                ",
"                                ",
"                                ",
"                                ",
"                                ",
"                                ",
"                                ",
"                                ",
"                                ",
"                                ",
"                                ",
"                                ",
"                                ",
".XXXoo.                         ",
".XXXoo.                         ",
".OXXXX.                         ",
".OXXXX.                         ",
".OXXXX.                         ",
".OXXXX.                         ",
".OXXXX.                         ",
".OXXXX.                         ",
".OXXoo.                         ",
".OXXoo.                         ",
".OXXoo.                         ",
".OXXoo.                         ",
".OOXoo.                         ",
".OXXoo.                         ",
".XXooo.                         ",
"......                          "
};
