/* XPM */
static char *out[] = {
/* columns rows colors chars-per-pixel */
"32 32 8 1 ",
"  c #25131A",
". c #36253B",
"X c #39334A",
"o c #463E57",
"O c #A33F14",
"+ c #D9701A",
"@ c #FFB64F",
"# c #F0E2C5",
/* pixels */
"                                ",
"   ............. ...............",
"  .............. ...............",
" ............... ...............",
" ....XXXXXXXXXXX XXXXXXXXXXXXXXX",
" ...XXXXXXXXXXXX.XoooXXXXXXXXXXX",
" ...XXXXXXXXXXXXXXoooXXoooooXXXX",
" ...XXXXXXXXXXXXXX...XXoooooXXXX",
" ...XXXXoooooXXXXXXXXXXoooooXXXX",
" ...XXXXoooooXXXXXXXXXXoooooXXXX",
" ...XXXXoooooXXXXXXXXXX.....XXXX",
" ...XXXX..oooXXXXXXXXXXXXXXXXXXX",
" ...XXXXXX..   XXXXXXXXXXXXXXXXX",
" ...XXXXXXX @## XXXXXXXXXXXXXXXX",
" ...XXXXXX @@##@     XXXXXXXXXXX",
"   ..XXXXX @+ +@@@@@# XXXXXXXXXX",
" ...XXXXXX + X ++++++ XXXXXXXXXX",
" ...XXXXXX + X +  @O@ XXXXXXXXXX",
" ...XXXXXo +O O+  + + XXXXXXXXXX",
" ...XXXXXoo +++ XX X  XXXXXXXXXX",
" ...XXXXXooo   XXXXXXXXXXXXXXXXX",
" ...XXXXX..oooXXXXXXXXXXXXXXXXXX",
" ...XXXXXXX...XXXXXXXXXXXXXXXXXX",
" ....XXXXXXXXXXXXXXXXXXXXXXXXXXX",
" ...XXXXXXooXXXXXXXXXXXXXXXXXXXX",
" ...XXXXXXooXXXXXXXXXXXXXXXXXXXX",
" ...XXXXXX..XXXXXXXXXXXXXXXXXXXX",
" ...XXXXXXXXXXXXXXXXXXXXXXXXXXXX",
" ...XXXXXXXXXXXXXXXXXXXXXXXXXXXX",
" ...XXXXXXXXXXXXXXXXXXXXXXXXXXXX",
" ...XXXXXXXXXXXXXXXXXXXXXXXXXXXX",
"   ..XXXXXXXXXXXXXXXXXXXXXXXXXXX"
};
