/* XPM */
static char *out[] = {
/* columns rows colors chars-per-pixel */
"32 32 8 1 ",
"  c #25131A",
". c #36253B",
"X c #39334A",
"o c #463E57",
"O c #A33F14",
"+ c #D9701A",
"@ c #FFB64F",
"# c #F0E2C5",
/* pixels */
"XXXXXXXXXXXXXXXXXXXXXXXXXXXXXXXX",
"XXXXXXXXXXXXXXXXXXXXoooXXXXXXXXX",
"XXXXXXXXXXXXXXXXXXXXoooXXoooooXX",
"XXXXXXXXXXXXXXXXXXXX...XXoooooXX",
"XXXXXXXXXXXXXXXXXXXXXXXXXoooooXX",
"XXXXXooooXXXXoooXoooooooXoooooXX",
"XXXXXooooXXXXoooXoooooooX.....XX",
"XXXXXooooXooooooXoooooooXXXXXXXX",
"XoooX....XooooooXooooooooooooooX",
"XoooXXXXXXoooooooooooooooooooooX",
"XoooXXXXXXoooooooooooooooooooooX",
"XooooooooooooooooooooooooooooooX",
"Xoooooooooooo  ooooooooooooooooX",
"Xooooooooooo @@ oooooooooooooooX",
"Xooooooooooo @@#   oooooooo....X",
"X.....oooooo @+#@## oooooooXXXXX",
"XXXXXXoooooo + ++++ oooooooXXXXX",
"XXXXXXoooooo + +  @ oooooooXXXXX",
"XXXXXXoooooo +O+  + oooooooXXXXX",
"XXXXXXoooooo OO oo  oooooooXXXXX",
"XXXXXXooooooo  ooooooooooooXXXXX",
"XXXXXXoooooooooo...........XXXXX",
"XXXXXXooooooooooXXXXXXXXXXXXXXXX",
"XXXXXXooooooooooXXXXXXXXXXXXXXXX",
"XXXXXX..........XXXXXXXXXooooXX.",
"XXoooXXXXXXXXXXXXXXXXXXXXooooooX",
"XXoooXXXXXXXXXXXXXXXXXXXXooooooX",
"XXoooXXXXXXXXXXXXXXXXXXXX..ooooX",
"XXoooXXXXXXXXXXXXXXXXXXXXXX....X",
"XX...XXXXXXXXXXXXXXXXXXXXXXXXXXX",
"XXXXXXXXXXXXXXXXXXXXXXXXXXXXXXXX",
"XXXXXXXXXXXXXXXXXXXXXXXXXXXXXXXX"
};
