/* XPM */
static char *out[] = {
/* columns rows colors chars-per-pixel */
"32 32 9 1 ",
"  c #25131A",
". c #36253B",
"X c #373737",
"o c #39334A",
"O c #463E57",
"+ c #895A45",
"@ c #BF704D",
"# c #90919E",
"$ c #ADC1CF",
/* pixels */
" ...oooooooooooooooooooooooo... ",
" ...oooooooooooooooooooooooo... ",
" ...oooooOOOoooooooooooooooo... ",
" ...oooooOOOOOoooooooooooooo... ",
" ...oooooOOOOOooooOOOooooooo... ",
" ...ooooo..OOOooooOOOOoooooo... ",
" ...ooooooo...ooooOOOOoooooo... ",
" ....ooooooooooooo.OOOooooo.... ",
" ...ooooOOOOOoooooooOOOOOOoo... ",
" ...ooooOOOOOo      OOOOOOoo... ",
" ...ooooOOOOO $##### .OOOOoo... ",
" ...oooo..OO $#      o....oo... ",
" ...oooooo.. ## $ $ $ oooooo... ",
" ...oooooooo #$ $ $ $ oooooo... ",
" ...oooooooo #$$$$$$$ oooooo... ",
"   ..ooooooo  ###  # oooooo..   ",
" ...ooooooo  X ####   oooooo... ",
" ...oooooo #$ XX $ X$ oooooo... ",
" ...oooooO #$ X ##$X$  ooooo... ",
" ...oooooO +  XX $ X + ooooo... ",
" ...oooooO   X@@ $ @   ooooo... ",
" ...ooooo.. XXXXX XXX oooooo... ",
" ...ooooooo XXXX + XX oooooo... ",
" ....ooooooooooooo.OOOooooo.... ",
" ...ooooooooooooooooOOOOoooo... ",
" ...oooooooooooooooooooooooo... ",
" ...oooooooooooo.ooooooooooo... ",
" ....ooooooooooo oooooooooo.... ",
" ............... .............. ",
"  .............. .............  ",
"   ............. ............   ",
"                                "
};
