/* XPM */
static char *out[] = {
/* columns rows colors chars-per-pixel */
"32 32 9 1 ",
"  c #25131A",
". c #36253B",
"X c #373737",
"o c #39334A",
"O c #463E57",
"+ c #895A45",
"@ c #BF704D",
"# c #90919E",
"$ c #ADC1CF",
/* pixels */
" ...oooooooooooooooooooooooo... ",
" ...oooooooooooooooooooooooo... ",
" ...oooooOOOoooooooooooooooo... ",
" ...oooooOOOOOoooooooooooooo... ",
" ...oooooOOOOOooooOOOooooooo... ",
" ...ooooo..OOOooooOOOOoooooo... ",
" ...ooooooo...ooooOOOOoooooo... ",
" ....ooooooooooooo.OOOooooo.... ",
" ...ooooOOOOOo      OOOOOOoo... ",
" ...ooooOOOOO $##### OOOOOoo... ",
" ...ooooOOOO $#      .OOOOoo... ",
" ...oooo..OO ## $ $ $ ....oo... ",
" ...oooooo.. #$ $ $ $ oooooo... ",
" ...oooooooo #$$$$$$$ oooooo... ",
" ...oooooooo  ###  # ooooooo... ",
"   ..ooooooo X ####  oooooo..   ",
" ...ooooooo  XXX $ X  oooooo... ",
" ...oooooo #$ X ##$X$ oooooo... ",
" ...oooooO #$ XX $ X$  ooooo... ",
" ...oooooO +  +@ $ @ + ooooo... ",
" ...oooooO   XXX  XX   ooooo... ",
" ...ooooo.. XXXX @ XX oooooo... ",
" ...ooooooo XXXX + XX oooooo... ",
" ....ooooooooooooo.OOOooooo.... ",
" ...ooooooooooooooooOOOOoooo... ",
" ...oooooooooooooooooooooooo... ",
" ...oooooooooooo.ooooooooooo... ",
" ....ooooooooooo oooooooooo.... ",
" ............... .............. ",
"  .............. .............  ",
"   ............. ............   ",
"                                "
};
