/* XPM */
static char *out[] = {
/* columns rows colors chars-per-pixel */
"32 32 7 1 ",
"  c #25131A",
". c #36253B",
"X c #39334A",
"o c #A33F14",
"O c #D9701A",
"+ c #FFB64F",
"@ c #F0E2C5",
/* pixels */
" ...XXXXXXXXXXXXXXXXXXXXXXXX... ",
" ...XXXXXXXXXXXXXXXXXXXXXXXX... ",
" ...XXXXXXXXXXXXXXXXXXXXXXXX... ",
" ...XXXXXXXXXXXXXXXXXXXXXXXX... ",
" ...XXXXXXXXXXXXXXXXXXXXXXXX... ",
" ...XXXXXXXXXXXXXXXXXXXXXXXX... ",
" ...XXXXXXXXXXXXXXXXXXXXXXXX... ",
" ...XXXXXXXXXXXXXXXXXXXXXXXX... ",
" ...XXXXXXXXXXXXXXXXXXXXXXXX... ",
" ...XXXXXXXXXXXXXXXXXXXXXXXX... ",
" ...XXXXXXXXXXXXXXXXXXXXXXXX... ",
" ...XXXXXXXXXXXXXXXXXXXXXXXX... ",
" ...XXXXXXXXXXX  XXXXXXXXXXX... ",
" ...XXXXXXXXXX @+ XXXXXXXXXX... ",
" ...XXXXXXXXXX @+ XXXXXXXXXX... ",
"     .XXXXXXXX OO XXXXXXXX.     ",
" ...XXXXXXXXXX OO XXXXXXXXXX... ",
" ...XXXXXXXXXX OO XXXXXXXXXX... ",
" ...XXXXXXXXXX oo XXXXXXXXXX... ",
" ...XXXXXXXXXX oo XXXXXXXXXX... ",
" ...XXXXXXXXXXX  XXXXXXXXXXX... ",
" ...XXXXXXXXXXXXXXXXXXXXXXXX... ",
" ...XXXXXXXXXXXXXXXXXXXXXXXX... ",
" ...XXXXXXXXXXXXXXXXXXXXXXXX... ",
" ...XXXXXXXXXXXXXXXXXXXXXXXX... ",
" ...XXXXXXXXXXXXXXXXXXXXXXXX... ",
" ...XXXXXXXXXXXXXXXXXXXXXXXX... ",
" ...XXXXXXXXXXXXXXXXXXXXXXXX... ",
" ...XXXXXXXXXXXXXXXXXXXXXXXX... ",
" ...XXXXXXXXXXXXXXXXXXXXXXXX... ",
" ...XXXXXXXXXXXXXXXXXXXXXXXX... ",
"     .XXXXXXXXXXXXXXXXXXXX.     "
};
