/* XPM */
static char *out[] = {
/* columns rows colors chars-per-pixel */
"32 32 8 1 ",
"  c #25131A",
". c #36253B",
"X c #39334A",
"o c #463E57",
"O c #A33F14",
"+ c #D9701A",
"@ c #FFB64F",
"# c #F0E2C5",
/* pixels */
"XXXXXXXXXXXXXXXXXXXXXXXXXXX..   ",
"XXXXXXXXXXXXXXXXXXXXXXXXXXXX... ",
"XXXXXXXXXXXXXXXXXXXXXXXXXXXX... ",
"XXXXXXXXXXXXXXXXXXXXXXXXXXXX... ",
"XXXXXXXXXXXXXXXXXXXXXXXXXXXX... ",
"XXXXXXXXXXXXXXXXXXXX..XXXXXX... ",
"XXXXXXXXXXXXXXXXXXXXooXXXXXX... ",
"XXXXXXXXXXXXXXXXXXXXooXXXXXX... ",
"XXXXXXXXXXXXXXXXXXXXXXXXXXX.... ",
"XXXXXXXXXXXXXXXXXX...XXXXXXX... ",
"XXXXXXXXXXXXXXXXXXooo..XXXXX... ",
"XXXXXXXXXXXXXXXXXXoooooXXXXX... ",
"XXXXXXXXXXXXXXXXX   oooXXXXX... ",
"XXXXXXXXXXXXXXXX ##@ ooXXXXX... ",
"XXXXXXXXXXX     @##@@ XXXXXX... ",
"XXXXXXXXXX #@@@@@+ +@ XXXXXX... ",
"XXXXXXXXXX ++++++ X + XXXXX..   ",
"XXXXXXXXXX @O@  + X + XXXXXX... ",
"XXXXXXXXXX + +  +O O+ XXXXXX... ",
"XXXXXXXXXX  X XX +++ .XXXXXX... ",
"XXXXXXXXXXXXXXXXX   oo..XXXX... ",
"XXXX.....XXXXXXXXXXoooooXXXX... ",
"XXXXoooooXXXXXXXXXXoooooXXXX... ",
"XXXXoooooXXXXXXXXXXoooooXXXX... ",
"XXXXoooooXX...XXXXXXXXXXXXXX... ",
"XXXXoooooXXoooXXXXXXXXXXXXXX... ",
"XXXXXXXXXXXoooX.XXXXXXXXXXXX... ",
"XXXXXXXXXXXXXXX XXXXXXXXXXX.... ",
"............... ............... ",
"............... ..............  ",
"............... .............   ",
"                                "
};
