/* XPM */
static char *out[] = {
/* columns rows colors chars-per-pixel */
"32 32 7 1 ",
"  c #25131A",
". c #36253B",
"X c #39334A",
"o c #463E57",
"O c #A33F14",
"+ c #D9701A",
"@ c #FFB64F",
/* pixels */
"XXXXXXXXXXXXXXXXXXXXXXXXXXX..   ",
"XXXXXXXXXXXXXXXXXXXXXXXXXXXX... ",
"XXXXXXXXXXXXXXXXXXXXXXXXXXXX... ",
"XXXXXXXXXXXXXXXXXXXXXXXXXXXX... ",
"XXXXXXXXXXXXXXXXXXXXXXXXXXXX... ",
"XXXXXXXXXXXXXXXXXXXX..XXXXXX... ",
"XXXXXXXXXXXXXXXXXXXXooXXXXXX... ",
"XXXXXXXXXXXXXXXXXXXXooXXXXXX... ",
"XXXXXXXXXXXXXXXXXXXXXXXXXXX.... ",
"XXXXXXXXXXXXXXXXXX...XXXXXXX... ",
"XXXXXXXXXXXXXXXXXXooo..XXXXX... ",
"XXXXXXXXXXXXXXXXXXoooooXXXXX... ",
"XXXXXXXXXXXXXXX  XoooooXXXXX... ",
"XXXXXXXXXXXXXX OO XXoooXXXXX... ",
"XXXXXXXXXXXXXX OO XXXXXXXXXX... ",
"XXXXXXXXXXXXXX ++ XXXXXXXXXX... ",
"XXXXXXXXXXXXXX ++ XXXXXXXXX..   ",
"XXXXXXXXXXXXXX @@ XXXXXXXXXX... ",
"XXXXXXXXXXXXXX OO XXXXXXXXXX... ",
"XXXXXXXXXXXXXX OO X...XXXXXX... ",
"XXXXXXXXXXXXXXX  XXooo..XXXX... ",
"XXXX.....XXXXXXXXXXoooooXXXX... ",
"XXXXoooooXXXXXXXXXXoooooXXXX... ",
"XXXXoooooXXXXXXXXXXoooooXXXX... ",
"XXXXoooooXX...XXXXXXXXXXXXXX... ",
"XXXXoooooXXoooXXXXXXXXXXXXXX... ",
"XXXXXXXXXXXoooX.XXXXXXXXXXXX... ",
"XXXXXXXXXXXXXXX XXXXXXXXXXX.... ",
"............... ............... ",
"............... ..............  ",
"............... .............   ",
"                                "
};
