/* XPM */
static char *out[] = {
/* columns rows colors chars-per-pixel */
"32 32 9 1 ",
"  c #25131A",
". c #36253B",
"X c #373737",
"o c #39334A",
"O c #463E57",
"+ c #895A45",
"@ c #BF704D",
"# c #90919E",
"$ c #ADC1CF",
/* pixels */
"oooooooooooooooooooooooooo.     ",
"oooooooooooooooooooooooooooo... ",
"oooooooooooooooooooooooooooo... ",
"oooooooooooooooooooooooooooo... ",
"oooooooooooooooooooooooooooo... ",
"ooooooooOOOOOooooooooooooooo... ",
"ooooooooOOOOOooooooooooooooo... ",
"ooooooooOOOOOOoooooooooooooo... ",
"oooooooo.OOOOOoooooooooooooo... ",
"oooooooooOOOOO      oooooooo... ",
"ooooooooo.... $##### ooooooo... ",
"oooooooooooo $#      ooooooo... ",
"oooooooooooo ## $ $ $ oooooo... ",
"oooooooooooo #$ $ $ $ oooooo... ",
"oooooooooooo #$$$$$$$ oooooo... ",
"oooooooooooo  ###  # ooooooo... ",
"ooooooooooo  X ####   oooo.     ",
"oooooooooo #$ XX $ X$ oooooo... ",
"oOOOOOOOoo #$ X ##$X$  ooooo... ",
"oOOOOOOOoo +  XX $ X + ooooo... ",
"oOOOOOOOoo   X@@ $ @   ooooo... ",
"oOOOOOOOOOO XXXXX XXX oooooo... ",
"oOOOOOOOOOO XXXX + XX oooooo... ",
"o....OOOOOOooooooooooooooooo... ",
"oooooOOOOOOooooooooooooooooo... ",
"ooooo......ooooooooooooooooo... ",
"oooooooooooooooooooooooooooo... ",
"oooooooooooooooooooooooooooo... ",
"oooooooooooooooooooooooooooo... ",
"oooooooooooooooooooooooooooo... ",
"oooooooooooooooooooooooooooo... ",
"oooooooooooooooooooooooooooo... "
};
