/* XPM */
static char *out[] = {
/* columns rows colors chars-per-pixel */
"32 32 9 1 ",
"  c #25131A",
". c #36253B",
"X c #373737",
"o c #39334A",
"O c #463E57",
"+ c #895A45",
"@ c #BF704D",
"# c #90919E",
"$ c #ADC1CF",
/* pixels */
"oooooooooooooooooooooooooooooooo",
"oooooooooooooooooooooooooooooooo",
"oooooooooooooooooOOOOOOOoooooooo",
"oooooooooooooooooOOOOOOOoooooooo",
"oooooooooooooooooOOOOOOOoooooooo",
"ooooooooOOOOOooooOOOOOOOOOOooooo",
"ooooooooOOOOOooooOOOOOOOOOOooooo",
"ooooooooOOOOOOooo....OOOOOOooooo",
"oooooooo.OOO      oooOOOOOOooooo",
"oooooooooOO #####$ oo......ooooo",
"ooooooooo..      #$ oooooooooooo",
"oooooooooo $ $ $ ## oooooooooooo",
"oooooooooo $ $ $ $# oooooooooooo",
"oooooooooo $$$$$$$# oooooooooooo",
"ooooooooooo #  ###  oooooooooooo",
"ooooooooooo  #### X oooooooooooo",
"oooooooooo  X $ XXX  ooooooooooo",
"oooooooooo $X$## X $# oooooooooo",
"ooooooooo  $X $ XX $# oooooooooo",
"ooooooooo + @ $ @+  + oooooooooo",
"ooooooooo   XX  XXX   oooooooooo",
"oooooooooo XX @ XXXX ooooooooooo",
"oooooooooo XX + XXXX ooooooooooo",
"oooooooooooooooooooooooooooooooo",
"oooooooooooooooooooooooooooooooo",
"oooooooooooooooooooooooooooooooo",
"ooooooooooooooo.ooooooooooooooo.",
"ooooooooooooooo ooooooooooooooo ",
"............... ............... ",
"............... ............... ",
"............... ............... ",
"                                "
};
