/* XPM */
static char *out[] = {
/* columns rows colors chars-per-pixel */
"32 32 9 1 ",
"  c #25131A",
". c #36253B",
"X c #373737",
"o c #39334A",
"O c #463E57",
"+ c #895A45",
"@ c #BF704D",
"# c #90919E",
"$ c #ADC1CF",
/* pixels */
"   ..ooooooooooooooooooooooooooo",
" ...oooooooooooooooooooooooooooo",
" ...oooooooooooooooooooooooooooo",
" ...oooooooooooooooooooooooooooo",
" ...oooooooooooooooooooooooooooo",
" ...oooooo..oooooooooooooooooooo",
" ...ooooooOOoooooooooooooooooooo",
" ...ooooooOOoooooooooooooooooooo",
" ....ooooooooooooooooooooooooooo",
" ...ooooooo...      oooooooooooo",
" ...ooooo..OO $##### ooooooooooo",
" ...oooooOOO $#      ooooooooooo",
" ...oooooOOO ## $ $ $ oooooooooo",
" ...oooooOOO #$ $ $ $ oooooooooo",
" ...oooooooo #$$$$$$$ oooooooooo",
" ...ooooooo  X###  #  oooooooooo",
"   ..ooooo #$  #### $ oooooooooo",
" ...oooooo #$ XX $ X$  ooooooooo",
" ...oooooo +  X ##$X + ooooooooo",
" ...oooooo   ++@ $ @   ooooooooo",
" ...oooo..OO XXX $ X ooooooooooo",
" ...ooooOOO XXXXX XXX o.....oooo",
" ...ooooOOO XXXX + XX oOOOOOoooo",
" ...ooooOOOOOooooooooooOOOOOoooo",
" ...oooooooooooooo...ooOOOOOoooo",
" ...ooooooooooooooOOOooOOOOOoooo",
" ...oooooooooooo.oOOOooooooooooo",
" ....ooooooooooo ooooooooooooooo",
" ............... ...............",
"  .............. ...............",
"   ............. ...............",
"                                "
};
