/* XPM */
static char *out[] = {
/* columns rows colors chars-per-pixel */
"16 16 11 1 ",
"  c #25131A",
". c #171A4F",
"X c #3D3347",
"o c #4A5462",
"O c #7D7071",
"+ c #1D3798",
"@ c #6D758D",
"# c #7084BB",
"$ c #2FAEFF",
"% c #9E8E88",
"& c #CFC2B0",
/* pixels */
"XXXXXXXXXXXXXXXX",
"XO%%OOOOO%O%OO%O",
"X%%%%OOOO%O%OO%%",
"O&%%%%%%%%%%%%%&",
"O&&&&&&&&&&&&&&&",
"XO%##%#%#%#%##%O",
"X%%O+@+@+@+@.O%%",
"X##.+@+@+@+@+.##",
"X##..o.o.o.o..##",
"X##..o.o.o.o..##",
"XOO..o.o.o.o..OO",
"X%%ooooooooooo%%",
"XOO.+++++++++.OO",
"XOO.+++$$$+++.OO",
"XOO.+++$$$+++.OO",
"                "
};
