/* XPM */
static char *out[] = {
/* columns rows colors chars-per-pixel */
"32 32 9 1 ",
"  c #25131A",
". c #171A4F",
"X c #3D3347",
"o c #7D7071",
"O c #1D3798",
"+ c #7084BB",
"@ c #2FAEFF",
"# c #9E8E88",
"$ c #CFC2B0",
/* pixels */
"XXXXXXXXXXXXXXXXXXXXXXXXXXXXXXXX",
"XXXXXXXXXXXXXXXXXXXXXXXXXXXXXXXX",
"XXoo####oooooooooo##oo##oooo##oo",
"XXoo####oooooooooo##oo##oooo##oo",
"XX########oooooooo##oo##oooo####",
"XX########oooooooo##oo##oooo####",
"oo$$##########################$$",
"oo$$##########################$$",
"oo$$$$$$$$$$$$$$$$$$$$$$$$$$$$$$",
"oo$$$$$$$$$$$$$$$$$$$$$$$$$$$$$$",
"XXoo##++++##++##++##++##++++##oo",
"XXoo##++++##++##++##++##++++##oo",
"XX####oo..................oo####",
"XX####oo..................oo####",
"XX++++....OOOOOOOOOOOOOO....++++",
"XX++++....OOOOOOOOOOOOOO....++++",
"XX++++..OOOOOOOOOOOOOOOOOO..++++",
"XX++++..OOOOOOOOOOOOOOOOOO..++++",
"XX++++..OOOOOO@@@@@@OOOOOO..++++",
"XX++++..OOOOOO@@@@@@OOOOOO..++++",
"XXoooo..OOOO@@@@@@@@@@OOOO..oooo",
"XXoooo..OOOO@@@@@@@@@@OOOO..oooo",
"XX####..OOOO@@@@@@@@@@OOOO..####",
"XX####..OOOO@@@@@@@@@@OOOO..####",
"XXoooo..OOOO@@@@@@@@@@OOOO..oooo",
"XXoooo..OOOO@@@@@@@@@@OOOO..oooo",
"XXoooo..OOOO@@@@@@@@@@OOOO..oooo",
"XXoooo..OOOO@@@@@@@@@@OOOO..oooo",
"XXoooo..OOOO@@@@@@@@@@OOOO..oooo",
"XXoooo..OOOO@@@@@@@@@@OOOO..oooo",
"                                ",
"                                "
};
