/* XPM */
static char *out[] = {
/* columns rows colors chars-per-pixel */
"32 32 8 1 ",
"  c #25131A",
". c #36253B",
"X c #39334A",
"o c #463E57",
"O c #A33F14",
"+ c #D9701A",
"@ c #FFB64F",
"# c #F0E2C5",
/* pixels */
"XXXXXXXXXXXXXXXXXXXXXXXXXX.     ",
"XXXXXXXXXXXXXXXXXXXXXXXXXXXX... ",
"XXXXXXXXXXXXXXXXXXXXXXXXXXXX... ",
"XXXXXXXXXXXXXXXXXXXXXXXXXXXX... ",
"XXXXXXXXXXXXXXXXXXXXXXXXXXXX... ",
"XXXXXXXXoooooXXXXXXXXXXXXXXX... ",
"XXXXXXXXoooooXXXXXXXXXXXXXXX... ",
"XXXXXXXXooooooXXXXXXXXXXXXXX... ",
"XXXXXXXX.oooooXXXXXXXXXXXXXX... ",
"XXXXXXXXXoooooXXXXXXXXXXXXXX... ",
"XXXXXXXXX.....XXXXXXXXXXXXXX... ",
"XXXXXXXXXXXXXXXXXXXXXXXXXXXX... ",
"XXXXXXXXXXXX   XXXXXXXXXXXXX... ",
"XXXXXXXXXXX @## XXXXXXXXXXXX... ",
"XXXXXXXXXX @@##@     XXXXXXX... ",
"XXXXXXXXXX @+ +@@@@@# XXXXXX... ",
"XXXXXXXXXX + X ++++++ XXXX.     ",
"XXXXXXXXXX + X +  @O@ XXXXXX... ",
"XoooooooXX +O O+  + + XXXXXX... ",
"XoooooooXXX +++ XX X  XXXXXX... ",
"XoooooooXXXX   XXXXXXXXXXXXX... ",
"XooooooooooXXXXXXXXXXXXXXXXX... ",
"XooooooooooXXXXXXXXXXXXXXXXX... ",
"X....ooooooXXXXXXXXXXXXXXXXX... ",
"XXXXXooooooXXXXXXXXXXXXXXXXX... ",
"XXXXX......XXXXXXXXXXXXXXXXX... ",
"XXXXXXXXXXXXXXXXXXXXXXXXXXXX... ",
"XXXXXXXXXXXXXXXXXXXXXXXXXXXX... ",
"XXXXXXXXXXXXXXXXXXXXXXXXXXXX... ",
"XXXXXXXXXXXXXXXXXXXXXXXXXXXX... ",
"XXXXXXXXXXXXXXXXXXXXXXXXXXXX... ",
"XXXXXXXXXXXXXXXXXXXXXXXXXXXX... "
};
