/* XPM */
static char *result[] = {
/* columns rows colors chars-per-pixel */
"32 32 4 1 ",
"  c #25131A",
". c #36253B",
"X c #39334A",
"o c #463E57",
/* pixels */
"                                ",
" ............... ...............",
" ............... ...............",
" ............... ...............",
" XXXXXXXXXXXXXXX XXXXXXXXXXXXXXX",
".XXXXXXXXXXXXXXX.XXXXXXXXXXXXXXX",
"XXXXXXXXXXXXXXXXXXXXXXXXXXXXXXXX",
"XXXXXXXXXXXXXXXXXXXXXXXXXXXXXXXX",
"XXXXXXXXXXXXXXXXXXXXXXXXXXXXXXXX",
"XXXXXXXXXXXXXXXXXXXXXXXXXXXXXXXX",
"XXXXXXXXXXXXXXXXXXXXXXXXXXXXXXXX",
"XXXXXXXXXXXXXXXXXXXXXXXXXXXXXXXX",
"XXXXXXXXXXXXXXXXXXXXXXXXXXXXXXXX",
"XXXXXXXXXXXXXXXXXXXXXXXXXXXXXXXX",
"XXXXXXXXXXXXXXXXXXXXXXXXXXXXXXXX",
"XXXXXXXXXXXXXXXXXXXXXXXXXXXXXXXX",
"XXXXXXXXXXXXXXXXXXXXXXXXXXXXXXXX",
"XXXXXXXXXXXXXXXXXXXXXXXXXXXXXXXX",
"XXXXXXXXXXXXXXXXXoooooooXXXXXXXX",
"XXXXXXXXXXXXXXXXXoooooooXXXXXXXX",
"XXXXXXXXXXXXXXXXXoooooooXXXXXXXX",
"XXXXXXXXoooooXXXXooooooooooXXXXX",
"XXXXXXXXoooooXXXXooooooooooXXXXX",
"XXXXXXXXooooooXXX....ooooooXXXXX",
"XXXXXXXX.oooooXXXXXXXooooooXXXXX",
"XXXXXXXXXoooooXXXXXXX......XXXXX",
"XXXXXXXXX.....XXXXXXXXXXXXXXXXXX",
"XXXXXXXXXXXXXXXXXXXXXXXXXXXXXXXX",
"XXXXXXXXXXXXXXXXXXXXXXXXXXXXXXXX",
"XXXXXXXXXXXXXXXXXXXXXXXXXXXXXXXX",
"XXXXXXXXXXXXXXXXXXXXXXXXXXXXXXXX",
"XXXXXXXXXXXXXXXXXXXXXXXXXXXXXXXX"
};
