/* XPM */
static char *out[] = {
/* columns rows colors chars-per-pixel */
"32 32 13 1 ",
"  c black",
". c gray7",
"X c #25131A",
"o c #36253B",
"O c #313B35",
"+ c #39334A",
"@ c #44504F",
"# c #64594F",
"$ c #606E6D",
"% c #BC4C51",
"& c #9A8571",
"* c #E6A353",
"= c #CDD5D0",
/* pixels */
"Xooo++++++++++++++++++++++++oooX",
"Xooo++++++++++++++++++++++++oooX",
"Xooo++++++++++++++++++++++++oooX",
"Xooo++++++++++++++++++++++++oooX",
"Xooo++++++++++++++++++++++++oooX",
"Xooo++++++++++++++++++++++++oooX",
"Xooo++++++++++++++++++++++++oooX",
"Xooo++++++++++++++++++++++++oooX",
"Xooo++++++++XXXXXX++++++++++oooX",
"Xooo+++++++X......X+++++++++oooX",
"Xooo+++++++X.@.....X++++++++oooX",
"Xooo++++++X OO$OO@..++++++++oooX",
"Xooo+++++++X=O$=O$@.++++++++oooX",
"Xooo+++++++X@@$@@$@.%+++++++oooX",
"Xooo+++++++X$$$$$@X%..++++++oooX",
"XXXXXo+++++X=XX=XXX+++++++oXXXXX",
"Xooo+++++++X&&&&&&#X++++++++oooX",
"Xooo++++++X#&X*X&&&&X+++++++oooX",
"Xooo++++++X#XXXXXXX#X+++++++oooX",
"Xooo++++++XX##X####XX+++++++oooX",
"Xooo+++++++X#&X&&#&X++++++++oooX",
"Xooo+++++++X#&X&&##&X+++++++oooX",
"Xooo++++++X#&XXX&&#&X+++++++oooX",
"Xooo++++++++++++++++++++++++oooX",
"Xooo++++++++++++++++++++++++oooX",
"Xooo++++++++++++++++++++++++oooX",
"Xooo++++++++++++++++++++++++oooX",
"Xooo++++++++++++++++++++++++oooX",
"Xooo++++++++++++++++++++++++oooX",
"Xooo++++++++++++++++++++++++oooX",
"Xooo++++++++++++++++++++++++oooX",
"XXXXXo++++++++++++++++++++oXXXXX"
};
