/* XPM */
static char *out[] = {
/* columns rows colors chars-per-pixel */
"32 32 9 1 ",
"  c #25131A",
". c #36253B",
"X c #373737",
"o c #39334A",
"O c #463E57",
"+ c #895A45",
"@ c #BF704D",
"# c #90919E",
"$ c #ADC1CF",
/* pixels */
"oooooooooooooooooooooooooooooooo",
"ooooooooooooooooooooOOOooooooooo",
"ooooooooooooooooooooOOOooOOOOOoo",
"oooooooooooooooooooo...ooOOOOOoo",
"oooooooooooooooooooooooooOOOOOoo",
"oooooOOOOooooOOOoOOOOOOOoOOOOOoo",
"oooooOOOOooooOOOoOOOOOOOo.....oo",
"oooooOOOOoOOOOOOoOOOOOOOoooooooo",
"oOOOo....oOOOOOOoOOOOOOOOOOOOOOo",
"oOOOooooooOOOO      OOOOOOOOOOOo",
"oOOOooooooOOO $##### OOOOOOOOOOo",
"oOOOOOOOOOOO $#      OOOOOOOOOOo",
"oOOOOOOOOOOO ## $ $ $ OOOOOOOOOo",
"oOOOOOOOOOOO #$ $ $ $ OOOOOOOOOo",
"oOOOOOOOOOOO #$$$$$$$ OOOOO....o",
"o.....OOOOOO  ###  # OOOOOOooooo",
"ooooooOOOOO  X ####   OOOOOooooo",
"ooooooOOOO #$ XX $ X$ OOOOOooooo",
"ooooooOOOO #$ X ##$X$  OOOOooooo",
"ooooooOOOO +  XX $ X + OOOOooooo",
"ooooooOOOO   X@@ $ @   OOOOooooo",
"ooooooOOOOO XXXXX XXX .....ooooo",
"ooooooOOOOO XXXX + XX oooooooooo",
"ooooooOOOOOOOOOOoooooooooooooooo",
"oooooo..........oooooooooOOOOoo.",
"ooOOOooooooooooooooooooooOOOOOOo",
"ooOOOooooooooooooooooooooOOOOOOo",
"ooOOOoooooooooooooooooooo..OOOOo",
"ooOOOoooooooooooooooooooooo....o",
"oo...ooooooooooooooooooooooooooo",
"oooooooooooooooooooooooooooooooo",
"oooooooooooooooooooooooooooooooo"
};
