/* XPM */
static char *out[] = {
/* columns rows colors chars-per-pixel */
"32 32 8 1 ",
"  c #25131A",
". c #36253B",
"X c #39334A",
"o c #463E57",
"O c #A33F14",
"+ c #D9701A",
"@ c #FFB64F",
"# c #F0E2C5",
/* pixels */
"   ..XXXXXXXXXXXXXXXXXXXXXXXXXXX",
" ...XXXXXXXXXXXXXXXXXXXXXXXXXXXX",
" ...XXXXXXXXXXXXXXXXXXXXXXXXXXXX",
" ...XXXXXXXXXXXXXXXXXXXXXXXXXXXX",
" ...XXXXXXXXXXXXXXXXXXXXXXXXXXXX",
" ...XXXXXX..XXXXXXXXXXXXXXXXXXXX",
" ...XXXXXXooXXXXXXXXXXXXXXXXXXXX",
" ...XXXXXXooXXXXXXXXXXXXXXXXXXXX",
" ....XXXXXXXXXXXXXXXXXXXXXXXXXXX",
" ...XXXXXXX...XXXXXXXXXXXXXXXXXX",
" ...XXXXX..oooXXXXXXXXXXXXXXXXXX",
" ...XXXXXoooooXXXXXXXXXXXXXXXXXX",
" ...XXXXXoooooXXX   XXXXXXXXXXXX",
" ...XXXXXoooXXXX ##@ XXXXXXXXXXX",
" ...XXXXXXX     @##@@ XXXXXXXXXX",
" ...XXXXXX #@@@@@+ +@ XXXXXXXXXX",
"   ..XXXXX ++++++ X + XXXXXXXXXX",
" ...XXXXXX @O@  + X + XXXXXXXXXX",
" ...XXXXXX + +  +O O+ XXXXXXXXXX",
" ...XXXXXX  . XX +++ XXXXXXXXXXX",
" ...XXXX..oooXXXX   XXXXXXXXXXXX",
" ...XXXXoooooXXXXXXXXXX.....XXXX",
" ...XXXXoooooXXXXXXXXXXoooooXXXX",
" ...XXXXoooooXXXXXXXXXXoooooXXXX",
" ...XXXXXXXXXXXXXX...XXoooooXXXX",
" ...XXXXXXXXXXXXXXoooXXoooooXXXX",
" ...XXXXXXXXXXXX.XoooXXXXXXXXXXX",
" ....XXXXXXXXXXX XXXXXXXXXXXXXXX",
" ............... ...............",
"  .............. ...............",
"   ............. ...............",
"                                "
};
