/* XPM */
static char *out[] = {
/* columns rows colors chars-per-pixel */
"32 32 9 1 ",
"  c #25131A",
". c #36253B",
"X c #373737",
"o c #39334A",
"O c #463E57",
"+ c #895A45",
"@ c #BF704D",
"# c #90919E",
"$ c #ADC1CF",
/* pixels */
"                                ",
" ............... ...............",
" ............... ...............",
" ............... ...............",
" ooooooooooooooo ooooooooooooooo",
".ooooooooooooooo.ooooooooooooooo",
"oooooooooooooooooooooooooooooooo",
"oooooooooooooooooooooooooooooooo",
"oooooooooooooo      oooooooooooo",
"ooooooooooooo $##### ooooooooooo",
"oooooooooooo $#      ooooooooooo",
"oooooooooooo ## $ $ $ oooooooooo",
"oooooooooooo #$ $ $ $ oooooooooo",
"oooooooooooo #$$$$$$$ oooooooooo",
"oooooooooooo  ###  # ooooooooooo",
"oooooooooooo X ####  ooooooooooo",
"ooooooooooo  XXX $ X  oooooooooo",
"oooooooooo #$ X ##$X$ oooooooooo",
"oooooooooo #$ XX $ X$  Ooooooooo",
"oooooooooo +  +@ $ @ + Ooooooooo",
"oooooooooo   XXX  XX   Ooooooooo",
"ooooooooOOO XXXX @ XX OOOOOooooo",
"ooooooooOOO XXXX + XX OOOOOooooo",
"ooooooooOOOOOOooo....OOOOOOooooo",
"oooooooo.OOOOOoooooooOOOOOOooooo",
"oooooooooOOOOOooooooo......ooooo",
"ooooooooo.....oooooooooooooooooo",
"oooooooooooooooooooooooooooooooo",
"oooooooooooooooooooooooooooooooo",
"oooooooooooooooooooooooooooooooo",
"oooooooooooooooooooooooooooooooo",
"oooooooooooooooooooooooooooooooo"
};
