/* XPM */
static char *out[] = {
/* columns rows colors chars-per-pixel */
"32 32 14 1 ",
"  c black",
". c gray7",
"X c #25131A",
"o c #36253B",
"O c #313B35",
"+ c #39334A",
"@ c #463E57",
"# c #44504F",
"$ c #64594F",
"% c #606E6D",
"& c #BC4C51",
"* c #9A8571",
"= c #E6A353",
"- c #CDD5D0",
/* pixels */
"Xooo++++++++++++++++++++++++oooX",
"Xooo++++++++++++++++++++++++oooX",
"Xooo+++++@@@++++++++++++++++oooX",
"Xooo+++++@@@@@++++++++++++++oooX",
"Xooo+++++@@@@@++++@@@+++++++oooX",
"Xooo+++++oo@@@++++@@@@++++++oooX",
"Xooo+++++++ooo++++@@@@++++++oooX",
"Xoooo+++++++++++++o@@@+++++ooooX",
"Xooo++++@@@@@+++++++@@@@@@++oooX",
"Xooo++++@@@@@+XXXXXX@@@@@@++oooX",
"Xooo++++@@@@@X......Xo@@@@++oooX",
"Xooo++++oo@@X.....#.X+oooo++oooX",
"Xooo++++++oo..#OO%OO X++++++oooX",
"Xooo+++++++&.#%O-%O-X+++++++oooX",
"Xooo++++++..&#%##%##X+++++++oooX",
"XXXoo++++++++X#%%%%%X++++++ooXXX",
"Xooo++++++++XXXX-XX-X+++++++oooX",
"Xooo+++++++X*$******$X++++++oooX",
"Xooo+++++@@X$***X=X*$X++++++oooX",
"Xooo+++++@@XXXXXXXXXXX++++++oooX",
"Xooo+++++@@@X$$$$X$$X+++++++oooX",
"Xooo+++++oo@X*$**X*$X@++++++oooX",
"Xooo+++++++X*$**XXX$X@++++++oooX",
"Xoooo+++++++++++++o@@@+++++ooooX",
"Xooo++++++++++++++++@@@@++++oooX",
"Xooo++++++++++++++++++++++++oooX",
"Xooo++++++++++++o+++++++++++oooX",
"Xoooo+++++++++++X++++++++++ooooX",
"XoooooooooooooooXooooooooooooooX",
"XXooooooooooooooXoooooooooooooXX",
"XXXoooooooooooooXooooooooooooXXX",
"XXXXXXXXXXXXXXXXXXXXXXXXXXXXXXXX"
};
