/* XPM */
static char *result[] = {
/* columns rows colors chars-per-pixel */
"32 32 5 1 ",
"  c #DDB982",
". c #C29861",
"X c #D6AF74",
"o c #CCA46A",
"O c white",
/* pixels */
"  ..XXXXXXXXXo    ..XXXXXXXXX   ",
" o  oXXXXXXXX.   o  oXXXXXX...  ",
"o    XXXXXXXoo..o    XXXXX.ooo..",
"     oXXXXX.oooo     oXXX.oooooo",
"    XXXoXX    .o    XXXoX.oooo.o",
"o  oXXo         o  oXXo   ooo.  ",
"XooXX.          XooXX.    ...   ",
"oo  o           oo  o    o      ",
"     oXXXo     o     oXXXX     o",
"oo  oXXXXXXoXXX.oo  oXXXXXXoXXX.",
"  o.XXXXXXXXooo   o.XXXXXXXXooo ",
"  o .oXXXXXXX     o .XXXXXXXX   ",
"   .o.XXXXXoo      .XXXXXXXoo   ",
"   .oo.Xoo. o      .XXXXoo. o  X",
"   .ooo.XXXXo      .oXXoXXXXo X ",
"  ooo.XXXXXXXo    oooooXXXXXXo  ",
"  ..XXXXXXXXXo    ..XXXXXXXXXo  ",
" oXXoXXXXXXXX.o  o  oXXXXXXXX.o ",
"oXXXX.o..oXXoo..o    XX...XXXo..",
"  XXXo    o.oooo     o.   ..oooo",
" XXXo    X    .o    X.        .o",
"oXXo     X      o  o...         ",
"Xoo     X       XooXX....       ",
"oo      X       oo  oooo...     ",
"        X      o     oXXXo...  o",
"oo      X   XXX.oo  oXXXXXXo..o.",
"  o.X    X Xooo   o.XXXXXXXXoo  ",
"  o .o    XXX     o .oXXXXXXX   ",
"   .o.XXXXXoo      .o.XXXXXo    ",
"   .oo.Xoo. o  X   .oo.Xoo. o   ",
"   .ooo.XXXXo X    .ooo.XXXXo   ",
"  ooo.XXXXXXXo    ooo.XXXXXXXo  "
};
