/* XPM */
static char *result[] = {
/* columns rows colors chars-per-pixel */
"32 32 127 2 ",
"   c #99E485",
".  c #D6AF74",
"X  c #DDB982",
"o  c #99E585",
"O  c #98E385",
"+  c #97E286",
"@  c #DBB67E",
"#  c #D3AC72",
"$  c #95DF87",
"%  c #8FD889",
"&  c #DDB881",
"*  c #C9A168",
"=  c #D8B47C",
"-  c #CBB882",
";  c #D1BF8A",
":  c #D0BD88",
">  c #D7B27A",
",  c #C9B67E",
"<  c #92DD88",
"1  c #C5B179",
"2  c #CBA36A",
"3  c #8DD58A",
"4  c #B07849",
"5  c #9D6B43",
"6  c #D1AA70",
"7  c #D1A96F",
"8  c #D4AE74",
"9  c #B77E4C",
"0  c #A37045",
"q  c #99DE84",
"w  c #D3C18C",
"e  c #CEBB84",
"r  c #AB7547",
"t  c #90D189",
"y  c #89D28C",
"u  c #8FC476",
"i  c #B47B4A",
"p  c #946440",
"a  c #85CD8D",
"s  c #C6B47A",
"d  c #C3AD79",
"f  c #CDAE74",
"g  c #95D57D",
"h  c #A0DC83",
"j  c #B3CC7E",
"k  c #B4A272",
"l  c #BF8A50",
"z  c #A6D480",
"x  c #A87246",
"c  c #95D07B",
"v  c #C6A56C",
"b  c #BDA66F",
"n  c #96C588",
"m  c #90BE71",
"M  c #96CC87",
"N  c #BEA777",
"B  c #90CA8A",
"V  c #B8844E",
"C  c #8A6B46",
"Z  c #94D986",
"A  c #82A263",
"S  c #90BA88",
"D  c #C79F67",
"F  c #92C08A",
"G  c #BFAC72",
"H  c #7D5B3C",
"J  c #B7C17B",
"K  c #B5C67C",
"L  c #D2B77E",
"P  c #AABA83",
"I  c #CEB37B",
"U  c #AC8C61",
"Y  c #C7C180",
"T  c #91B36D",
"R  c #B0D483",
"E  c #BBBA85",
"W  c #CDA76E",
"Q  c #9DE084",
"!  c #97AA6C",
"~  c #B3B381",
"^  c #93CA78",
"/  c #A0B582",
"(  c #C3BF7A",
")  c #86AB68",
"_  c #D5C48E",
"`  c #DBBA82",
"'  c #9BBC84",
"]  c #A0C583",
"[  c #C8BA79",
"{  c #7D7D50",
"}  c #C8B582",
"|  c #9D8053",
" . c #8E613E",
".. c #A0784D",
"X. c #8ACE8B",
"o. c #8CCE86",
"O. c #7D7048",
"+. c #9B7149",
"@. c #9E9D67",
"#. c #8A905B",
"$. c #85975D",
"%. c #BABB77",
"&. c #96D188",
"*. c #92B787",
"=. c #82C58F",
"-. c #B2BD87",
";. c #A3A56C",
":. c #B1AC78",
">. c #C1C982",
",. c #7D6946",
"<. c #A6DA83",
"1. c #B9AF74",
"2. c #A99D6C",
"3. c #96D97F",
"4. c #885E3E",
"5. c #827A4D",
"6. c #A1B281",
"7. c #7E5138",
"8. c #AEB67B",
"9. c #A38F65",
"0. c #8AB96E",
"q. c #B7B472",
"w. c #D5BE82",
"e. c #AB855A",
"r. c #789468",
"t. c #7A8353",
"y. c #AAC787",
/* pixels */
"& > 2 * 6 . . . . . . . # W @ X & > 2 * 6 . . . . . 8 # # > & X ",
"= 8 > > # 8 . . . . . . 1 1 . = = 8 [ L # 8 . ( ( . 7 * D 2 . = ",
"8 = X & = [ j [ . ( j %.j z q.J K ( <.R Y j j h h %.* v v * * * ",
"@ & X w.L J q z J <.$ M q O M Z Z M O q &.+   o < ' G K ] :.* * ",
"@ & ` R R ] 3 $ t +   $ O o +   < y $ O $ O   + 3 o.h % B 1.* W ",
"# = = K Q % X.3 $   o O 3.c T ! ! ! u 3.+ o   $ 3 + O % < ] 1 @ ",
"6 7 # s M $ % 3 +   g m @.@.k N d N 2.@.T c O   O     + Z ] - X ",
"7 6 J z 3 a %   o g ;.k - e , : ; e : } k ;.^       + y n E & @ ",
"> > -.3 + < +   g ! d : e - , , 1 G s - : - ;.^ O   O < B E = 7 ",
"# 8 I M + o   + ! N w - 1 e e ; : : - s , : N @.q     q P f # 2 ",
"@ > f z     o c 2.: - s ; w , s d - ; _ - 1 e k m o   Q K f # > ",
"X @ J q o + + u 2.e 1 s - ; 1 : : , : w , b : k T o   o q K @ & ",
"X & -.t % y < u 9.1 , , ; ; e 1 s e _ w , d : 9.) o $ $ t -.` & ",
"X X L n a 3   m ,.N _ e - - ; : : w w , , w } C A o % X.P L @ = ",
"X ` >.h O O o m C U 1 : : - 1 b G , , - ; : U 4.A o + &.%.j Y @ ",
"X Y h       o m ..9 e.k : ; ; : - e : ; N U 0 p A   $ Q h &.E X ",
"& E M +   $ Z $.V V r p | U d } 1 d U | +.5 4 0 5.c % 3 t / I X ",
"= f 8.B y y o.| l V i 5 0 4 ....+...0 5 r r r x C u + y B q.W > ",
"# [ j &.y % T | l 9 r 5 4 9 9 i 0 4 9 4 0 5 x 4 5 $.+ O + z 1.D ",
"@ E t O O c #.V l 4  . .0 i i i x 9 9 0 4.p 5 4 r O.u q t Z %.* ",
"= I P t o.#.V V 0 C H 7.p 0 x i 4 i 4 p 7.H H 4.x 5 5.c y.' :.W ",
"6 # f n a #.+.C { T ) O.H p x 9 4 r 5 H ,.$.0.t.,. .5.g R e = @ ",
"7 W f z   c A ) 3.O O g #. .4 9 9 r p { ^ +   q 0.A u Q >.` X X ",
"7 6 L R O o o o o     o g { 5 l l r O.^ o       o o o h Y & & @ ",
"> > & >.Q               O ) C l l +.$.q           $ % $ z , > 7 ",
"# 8 Y <.O < <   O       o g { 5 5 O.u o           % X.$ % 6.W 2 ",
"@ > P X.% y < $ 3 +       O u r.A m $ % $     o < 3 + $ n 1.> = ",
"X @ d ~ S a O % =.% < < O   + a % +   % a < < $ % =.t B ~ = & X ",
"X & > 2 k n Z F *.S S F % O < F F B $ 3 S *.S F a *./ / I & X X ",
"X X = * * 8.' G W v v 1 ' X.n } L P =./ b v D G 6.:.v f # @ X X ",
"X & > * * b b 2 6 # # 8 d ~ } @ X - ~ b * 2 2 2 6 # # 8 6 = & X ",
"X @ 6 2 * D 7 # 8 . . . # # = X X @ 6 2 * D 7 # 8 . . . # # @ X "
};
