/* XPM */
static char *out[] = {
/* columns rows colors chars-per-pixel */
"32 32 8 1 ",
"  c #25131A",
". c #36253B",
"X c #39334A",
"o c #463E57",
"O c #A33F14",
"+ c #D9701A",
"@ c #FFB64F",
"# c #F0E2C5",
/* pixels */
" ...XXXXXXXXXXXXXXXXXXXXXXXX... ",
" ...XXXXXXXXXXXXXXXXXXXXXXXX... ",
" ...XXXXXoooXXXXXXXXXXXXXXXX... ",
" ...XXXXXoooooXXXXXXXXXXXXXX... ",
" ...XXXXXoooooXXXXoooXXXXXXX... ",
" ...XXXXX..oooXXXXooooXXXXXX... ",
" ...XXXXXXX...XXXXooooXXXXXX... ",
" ....XXXXXXXXXXXXX.oooXXXXX.... ",
" ...XXXXoooooXXXXXXXooooooXX... ",
" ...XXXXoooooXXXXXXXooooooXX... ",
" ...XXXXoooooXXXXXXX..ooooXX... ",
" ...XXXX..oooXXXXXXXXX....XX... ",
" ...XXXXXX...XXXX  XXXXXXXXX... ",
" ...XXXXXXXXXXXX @@ XXXXXXXX... ",
" ...XXXXXXXXX   #@@ XXXXXXXX... ",
"   ..XXXXXXX ##@#+@ XXXXXXX..   ",
" ...XXXXXXXX ++++ + XXXXXXXX... ",
" ...XXXXXXXX @  + + XXXXXXXX... ",
" ...XXXXXooo +  +O+ XXXXXXXX... ",
" ...XXXXXooo  XX OO XXXXXXXX... ",
" ...XXXXXoooooXXX  ooXXXXXXX... ",
" ...XXXXX..oooXXXXooooXXXXXX... ",
" ...XXXXXXX...XXXXooooXXXXXX... ",
" ....XXXXXXXXXXXXX.oooXXXXX.... ",
" ...XXXXXXXXXXXXXXXXooooXXXX... ",
" ...XXXXXXXXXXXXXXXXXXXXXXXX... ",
" ...XXXXXXXXXXXX.XXXXXXXXXXX... ",
" ....XXXXXXXXXXX XXXXXXXXXX.... ",
" ............... .............. ",
"  .............. .............  ",
"   ............. ............   ",
"                                "
};
